<svg xmlns="http://www.w3.org/2000/svg" xmlns:xlink="http://www.w3.org/1999/xlink" width="202" height="58" viewBox="0 0 202 58">
  <defs>
    <filter id="Rectangle_2" x="0" y="0" width="202" height="58" filterUnits="userSpaceOnUse">
      <feOffset dy="3" input="SourceAlpha"/>
      <feGaussianBlur stdDeviation="3" result="blur"/>
      <feFlood flood-opacity="0.161"/>
      <feComposite operator="in" in2="blur"/>
      <feComposite in="SourceGraphic"/>
    </filter>
  </defs>
  <g id="组件_39_3" data-name="组件 39 – 3" transform="translate(9 6)">
    <g id="_3.Button_Big-Em_Gray" data-name="3.Button/Big-Em_Gray">
      <g id="_3.Button_Big-Em_Gray-2" data-name="3.Button/Big-Em_Gray">
        <g id="Group_2" data-name="Group 2">
          <g transform="matrix(1, 0, 0, 1, -9, -6)" filter="url(#Rectangle_2)">
            <rect id="Rectangle_2-2" data-name="Rectangle 2" width="184" height="40" rx="4" transform="translate(9 6)" fill="#f2f2f2"/>
          </g>
          <path id="文字颜色" d="M4,0H180a4,4,0,0,1,4,4V36a4,4,0,0,1-4,4H4a4,4,0,0,1-4-4V4A4,4,0,0,1,4,0Z" fill="#07c160"/>
        </g>
      </g>
    </g>
    <text id="确定" transform="translate(92.98 26)" fill="#fff" font-size="17" font-family="'\.PingFang-SC-Medium', '\.PingFang SC'" font-weight="500"><tspan x="-17" y="0">确定</tspan></text>
    <rect id="矩形_25" data-name="矩形 25" width="184" height="40" transform="translate(0.98)" fill="rgba(0,0,0,0.1)" opacity="0"/>
  </g>
</svg>
