<?xml version="1.0" standalone="no"?><!DOCTYPE svg PUBLIC "-//W3C//DTD SVG 1.1//EN" "http://www.w3.org/Graphics/SVG/1.1/DTD/svg11.dtd"><svg t="1672040669330" class="icon" viewBox="0 0 1024 1024" version="1.1" xmlns="http://www.w3.org/2000/svg" p-id="5650" xmlns:xlink="http://www.w3.org/1999/xlink" width="80" height="80"><path d="M511.674077 39.761586l469.687312 468.684472-469.687312 468.182029-468.674239-468.182029L511.674077 39.761586zM544.154839 633.862465l0-23.485901c0-16.48444 3.499707-30.473035 10.988262-40.972157 7.500834-10.990309 21.99085-24.477484 43.470047-40.97318 34.486442-27.476795 57.468876-51.463092 69.463048-72.450079 12.483312-20.98801 18.481933-45.966914 18.481933-75.448366 0-44.964074-15.483646-80.4421-46.969755-105.922425-30.976502-25.490557-73.944106-38.476313-128.906905-38.476313-26.483164 0-54.961776 4.492314-85.947488 13.988596-30.975479 9.496282-58.461483 20.98801-81.94636 34.976606l40.97318 88.935542c53.467749-26.472931 94.942349-39.97034 124.914988-39.97034 41.977044 0 62.46261 20.98801 62.46261 52.464909 0 17.488303-4.001127 32.981159-12.493545 45.475727-7.993045 12.484336-23.987321 27.475771-47.963385 45.465494-27.987425 22.482037-46.969755 43.470047-56.967456 61.962214-9.486048 18.479887-14.490016 40.470737-14.490016 64.948221l0 29.482475L544.154839 633.863489zM425.736822 771.270998c0 41.965787 23.986297 67.456345 70.454632 67.456345 43.971467 0 69.452815-25.980721 69.452815-67.456345 0-42.47744-24.989137-68.459185-69.452815-68.459185C448.21886 702.811814 425.736822 727.800951 425.736822 771.270998z" p-id="5651" fill="#07C160"></path></svg>