<svg xmlns="http://www.w3.org/2000/svg" width="220.042" height="268.814" viewBox="0 0 220.042 268.814">
  <g id="file_ppt" transform="translate(-93 -2.7)">
    <path id="路径_1" data-name="路径 1" d="M264.612,51.167V3H93V271.735H313.042V51.167Z" transform="translate(0 -0.221)" fill="#07c160"/>
    <path id="路径_2" data-name="路径 2" d="M793.43,50.946H745V2.7" transform="translate(-480.388)" fill="rgba(7,193,96,0.5)"/>
    <path id="路径_3" data-name="路径 3" d="M390.5,341.126h16.9v89.7H390.5Zm7.712,38.613H426.9a10.235,10.235,0,0,0,5.343-1.395,9.462,9.462,0,0,0,3.606-3.922,12.427,12.427,0,0,0,1.29-5.791,13.21,13.21,0,0,0-1.263-5.9,9.154,9.154,0,0,0-3.58-3.948,10.359,10.359,0,0,0-5.4-1.395h-28.69V341.1h28.242a30.653,30.653,0,0,1,14.766,3.422,24.456,24.456,0,0,1,9.9,9.66,31.2,31.2,0,0,1,0,28.821,23.947,23.947,0,0,1-9.9,9.581,31.023,31.023,0,0,1-14.766,3.4H398.212Z" transform="translate(-219.196 -249.331)" fill="#fff"/>
  </g>
</svg>
