<?xml version="1.0" standalone="no"?><!DOCTYPE svg PUBLIC "-//W3C//DTD SVG 1.1//EN" "http://www.w3.org/Graphics/SVG/1.1/DTD/svg11.dtd"><svg t="1671957226405" class="icon" viewBox="0 0 1024 1024" version="1.1" xmlns="http://www.w3.org/2000/svg" p-id="2095" xmlns:xlink="http://www.w3.org/1999/xlink" width="80" height="80"><path d="M921.6 1006.933333H102.4V17.066667h658.773333L921.6 240.64V1006.933333z m-750.933333-68.266666h682.666666V262.826667L725.333333 85.333333H170.666667v853.333334z" fill="#191919" p-id="2096"></path><path d="M887.466667 324.266667H699.733333V51.2h68.266667v204.8h119.466667z" fill="#191919" p-id="2097"></path><path d="M443.733333 819.2h68.266667v68.266667h-68.266667z" fill="#00C97C" p-id="2098"></path><path d="M443.733333 870.4h68.266667v68.266667h-68.266667zM512 819.2h68.266667v68.266667h-68.266667z" fill="#00C97C" p-id="2099"></path><path d="M512 870.4h68.266667v68.266667h-68.266667zM443.733333 682.666667h68.266667v68.266666h-68.266667zM443.733333 546.133333h68.266667v68.266667h-68.266667zM443.733333 409.6h68.266667v68.266667h-68.266667zM512 750.933333h68.266667v68.266667h-68.266667zM512 614.4h68.266667v68.266667h-68.266667zM512 477.866667h68.266667v68.266666h-68.266667z" fill="#00C97C" p-id="2100"></path></svg>