<svg id="组件_95_1" data-name="组件 95 – 1" xmlns="http://www.w3.org/2000/svg" width="24" height="35.001" viewBox="0 0 24 35.001">
  <path id="菜单" d="M108.026,98.93h-5.792a2.607,2.607,0,0,0-2.6,2.6v5.792a2.607,2.607,0,0,0,2.6,2.6h5.792a2.607,2.607,0,0,0,2.6-2.6v-5.793A2.606,2.606,0,0,0,108.026,98.93Zm.868,8.4a.869.869,0,0,1-.868.868h-5.792a.869.869,0,0,1-.868-.868v-5.792a.869.869,0,0,1,.868-.868h5.792a.869.869,0,0,1,.868.868Zm-.868,4.606h-5.792a2.607,2.607,0,0,0-2.6,2.6v5.792a2.607,2.607,0,0,0,2.6,2.6h5.792a2.607,2.607,0,0,0,2.6-2.6v-5.792A2.607,2.607,0,0,0,108.026,111.932Zm.868,8.4a.869.869,0,0,1-.868.868h-5.792a.869.869,0,0,1-.868-.868v-5.792a.869.869,0,0,1,.868-.868h5.792a.869.869,0,0,1,.868.868Zm12.132-21.4h-5.792a2.607,2.607,0,0,0-2.6,2.6v5.792a2.607,2.607,0,0,0,2.6,2.6h5.792a2.607,2.607,0,0,0,2.6-2.6v-5.793A2.606,2.606,0,0,0,121.026,98.93Zm.868,8.4a.869.869,0,0,1-.868.868h-5.792a.869.869,0,0,1-.868-.868v-5.792a.869.869,0,0,1,.868-.868h5.792a.869.869,0,0,1,.868.868Zm-.868,4.606h-5.792a2.607,2.607,0,0,0-2.6,2.6v5.792a2.607,2.607,0,0,0,2.6,2.6h5.792a2.607,2.607,0,0,0,2.6-2.6v-5.792A2.607,2.607,0,0,0,121.026,111.932Zm.868,8.4a.869.869,0,0,1-.868.868h-5.792a.869.869,0,0,1-.868-.868v-5.792a.869.869,0,0,1,.868-.868h5.792a.869.869,0,0,1,.868.868Z" transform="translate(-99.63 -98.93)" fill="#707070"/>
  <text id="分类" transform="translate(12 33.001)" fill="#707070" font-size="7" font-family="'\.PingFang-SC-Medium', '\.PingFang SC'" font-weight="500"><tspan x="-7" y="0">分类</tspan></text>
</svg>
