<svg xmlns="http://www.w3.org/2000/svg" width="17.794" height="17" viewBox="0 0 17.794 17">
  <path id="星星_1_" data-name="星星 (1)" d="M93.938,104.537a.8.8,0,0,0-.569-.526l-4.948-1.194-2.666-4.338a.792.792,0,0,0-1.352,0l-2.664,4.338-4.948,1.194a.8.8,0,0,0-.569.526.788.788,0,0,0,.152.76l3.3,3.875-.393,5.075a.795.795,0,0,0,.793.854.823.823,0,0,0,.3-.059l4.7-1.944,4.706,1.944a.784.784,0,0,0,.3.059.795.795,0,0,0,.793-.854l-.393-5.075,3.3-3.875A.807.807,0,0,0,93.938,104.537Zm-4.27,4.37.42,5.4-5.009-2.068-5.007,2.068.42-5.4-3.516-4.125,5.267-1.27L85.079,98.9l2.836,4.616,5.267,1.27Z" transform="translate(-76.182 -98.1)" fill="#f4ea2a"/>
</svg>
