<svg id="组件_96_1" data-name="组件 96 – 1" xmlns="http://www.w3.org/2000/svg" width="31.957" height="36.277" viewBox="0 0 31.957 36.277">
  <path id="云上传" d="M31.957,81.158a4.114,4.114,0,0,1-1.039,2.764,4.693,4.693,0,0,1-1.15.943,4.136,4.136,0,0,1-1.422.511l.032.032H6.487a2.9,2.9,0,0,1-.511.032,5.715,5.715,0,0,1-2.333-.479,6.2,6.2,0,0,1-1.9-1.294,5.976,5.976,0,0,1-1.278-1.9,6.1,6.1,0,0,1,0-4.666,5.977,5.977,0,0,1,1.278-1.9,6.2,6.2,0,0,1,1.9-1.294,5.715,5.715,0,0,1,2.333-.479h.032a3.877,3.877,0,0,1-.032-.479v-.511a10.756,10.756,0,0,1,.863-4.282,10.915,10.915,0,0,1,2.365-3.5A11.291,11.291,0,0,1,12.7,62.3a10.642,10.642,0,0,1,4.266-.863,10.756,10.756,0,0,1,4.282.863,11.24,11.24,0,0,1,3.515,2.349,10.915,10.915,0,0,1,2.365,3.5,10.756,10.756,0,0,1,.863,4.282,10.506,10.506,0,0,1-.256,2.317,11.888,11.888,0,0,1-.7,2.157,3.181,3.181,0,0,1,.336-.048q.176-.016.336-.016a4.207,4.207,0,0,1,3,1.262,4.483,4.483,0,0,1,.911,1.374A4.214,4.214,0,0,1,31.957,81.158Zm-11.185-3.8a1.562,1.562,0,0,0,.831-.144q.192-.144-.256-.687a14.142,14.142,0,0,1-.991-1.5q-.543-.927-1.134-1.885t-1.2-1.79a4.953,4.953,0,0,0-1.182-1.214,2.226,2.226,0,0,0-.847-.447,1.252,1.252,0,0,0-.783.383,6.936,6.936,0,0,0-1.119,1.214q-.543.735-1.1,1.566t-1.119,1.63a12.286,12.286,0,0,1-1.134,1.406q-.575.575-.415,1.023t.8.447h.511q.288,0,.623.016t.655.016h.543a.622.622,0,0,1,.575.3,1.8,1.8,0,0,1,.128.751q0,.543-.016.959t-.016.8q0,.383-.016.8t-.016.959a2.608,2.608,0,0,0,.048.479,1.526,1.526,0,0,0,.176.479.983.983,0,0,0,.383.368,1.364,1.364,0,0,0,.671.144h.735q.288,0,.863.032.767,0,.879-.383a4.744,4.744,0,0,0,.112-1.214q0-.735.016-1.326t.016-1.614a3.494,3.494,0,0,1,.144-1.134.593.593,0,0,1,.623-.4q.352,0,1.007-.016t1.007-.016Z" transform="translate(0 -61.44)" fill="rgba(44,44,44,0.3)"/>
  <text id="上传" transform="translate(16.479 34.277)" fill="rgba(44,44,44,0.3)" font-size="7" font-family="'\.PingFang-SC-Medium', '\.PingFang SC'" font-weight="500"><tspan x="-7" y="0">上传</tspan></text>
</svg>
