<svg xmlns="http://www.w3.org/2000/svg" width="390" height="352.313" viewBox="0 0 390 352.313">
  <g id="保存文件" transform="translate(-278.782 -170.526)" opacity="0.8">
    <g id="JWmPa9.tif" transform="translate(295.809 179.462)">
      <path id="路径_54" data-name="路径 54" d="M657.683,356.333c-.661,0-1.51.656-2.915,1.574-2.578-5.741-.551-9.161-12.942-13.679a35.46,35.46,0,0,0-12.218-2.207c-7.369,0-18.795,3.974-21.2,3.974-.819,0-1.079-.485-4.148-1.7-4.131-1.632-8.589-1.965-12.824-3.193-67.012-11.185-65.565-9.876-66.512-14.135,2.144-.114,15.7-.346,15.753-.346h.226c1.415,0,2.862-.055,2.862-2.574,0-2.438-.224-36.071-.224-36.128,0-3.885,5.726.593,5.726-11.587,0-14.487-6.475-24.433-6.969-28.674-2.348-20.147-1.555-41.648-34.8-54.9a76.449,76.449,0,0,0-28.556-5.517c-62.485,0-63.876,44.294-63.876,115.922q0,5.008,0,10.193c0,.05.063,17,.543,21.168,27.33-.952,30.675-1.1,36.57-1.141-2.3,2.357-141.554,34.475-141.554,137.119,0,11.4.391,60.116,57.667,60.116,37.122,0,68.79-49.7,74.98-50.963,18.695-3.821,29.668-12.99,30.5-13.664,4.475.4,155.6.867,155.652.867,1.515,0,1.688-.633,1.986-.633.126,0,.3.054.436.054,1.379,0,1.45-1.22,1.45-1.779,0-.065,0-.121,0-.165,0-.09-.238-29.243-.238-30.048,0-.331,0-.676,0-1.057,22.281-1.105,26.5-15.557,26.5-21.157,0-11.361-10.567-18.479-21.634-18.479a38.634,38.634,0,0,0-5.1.39c-.118-1.128-.248-17.055-.248-17.106,0-1.686,23.073-16.508,24.376-17.332,1.184,2.376,2.246,4.727,3.286,7.127-7.762,5.162-9.926,5.5-9.926,6.916a1.243,1.243,0,0,0,1.23,1.241c1.038,0,6.939-4.24,9.8-5.616,8.872,19.617,19.651,52.8,19.651,83.163,0,36.343-15.751,65.761-51.165,65.761-41.793,0-80.72-38.961-82.958-38.961a1.28,1.28,0,0,0-1.177,1.2c0,1.124,42.681,40.376,83.858,40.376,37.279,0,54.048-30.587,54.048-68.407C683.6,406.04,659.05,356.333,657.683,356.333ZM608.495,348.7a2.688,2.688,0,0,1,.312.062c-.493.791-2.8,1.979-5.473,6.838-.663,1.208-1.691,1.3-2.806,1.3a11.948,11.948,0,0,1-5.268-1.481c.312-4.471,13.186-6.717,13.236-6.717Zm-4.7-1.589c-1.238.349-8.041,1.666-10.546,6.14a4.5,4.5,0,0,0-.67,2.153c0,3.165,6.512,4.1,7.8,4.1q.388,0,.79-.032c-.645,2.2-1.487,3.945-1.487,7.279,0,3.444.857,3.49.857,4.607,0,2.435-3.521,13.907-13.327,13.907-6.6,0-13.422-5.754-15.016-17.518-.224-1.657-.225-2.12-3.221-2.12-8.891,0-61.072,1.04-61.122,1.04-.28,0-.574,0-.9,0l.5-4.981c2.234-.613,29.72-6.316,41.817-24.964,34.462,5.323,53,8.675,54.527,10.4ZM458.322,310.614c0-7.142-.115-16.343-.115-28.3,0-3.081-.164-2.391-9.055-3.082a2.726,2.726,0,0,1-.24-1.192c0-.395.051-.779.051-1.157,0-.1,0-.123,0-.241,0-.26.018-.523.018-.782,0-1.544-1.067-1.595-1.24-1.595h-.023c-1.525,0-1.279,1.656-1.429,4.1a3.6,3.6,0,0,1-.61.052c-4.54,0-5.176-6.675-5.176-13.436q0-.372,0-.772c0-9.549.12-30.482,8.942-30.482,12.981,0,5.615,34.543,10.88,34.543,10.067,0,17.4-23.344,27.9-27.312,12.639-4.776,18.345-3.172,26.531-19.494,17.875,8.182,31.812,36.914,31.812,54.131,0,9.478-1.734,8.6-15.679,9.872-.185.017-.374.026-.562.026-.723,0-.875-.122-1.62-.122-1.693,0-5.664,1.383-5.957,4.138-.37,3.476-.685,34.384-.685,34.434,0,12.731,12.962,8.869,24.435,12.406-11.857,16.269-36.33,22.273-39.1,22.53-.129-.951-2.9-26.809-25.327-26.809-5.567,0-20.849,3.127-24.38,25.114-8.456-3.052-15.951-7.193-21.613-14.45,20.273-8.275,22.245-2.544,22.245-32.121ZM431.649,487.1c-5.787-8.3-6-9.813-7.3-9.813a1.24,1.24,0,0,0-1.218,1.217c0,1.005,2.092,3.4,6.62,10.535-.414.507-22.414,23.809-37.939,32.715a45.785,45.785,0,0,1-23.651,6.256c-51.462,0-54.927-40.407-54.927-57.509,0-57.945,59.45-110.338,120.208-126.941,6.092,8.292,14.594,13.006,24.005,16.309a3.555,3.555,0,0,1,.107,1.337c0,.279,0,.644,0,1.128,0,.582,0,1.177,0,1.8-.836.131,2.779-.038-32.283,1.8-2.954.155-3.205-1.231-3.205,14.875,0,3.3.011,7.336.011,12.27,0,18.134.361,20.121.361,31.9,0,3.892-.046,9.023-.046,11.192v.117a1.934,1.934,0,0,1-.583,1.66c-2.473-.705-2.306-.719-2.759-.719-2.766,0-39.006,14.34-40.083,14.708.021-.05,15.114-28.227,15.114-31.968a1.13,1.13,0,0,0-1.149-1.183c-.428,0-.766.282-1.046.9-20.519,45.072-16.408,33.43-32.141,44.158-7.984,5.444-8.58,8.713-8.58,9.681a2.886,2.886,0,0,0,2.95,2.848c9.088,0,19.239-17.425,21.364-18.492,14.733-7.4,14.507-7.79,30.693-13.675,3.163,7.2,3.085,9.768,4.693,9.768a1.239,1.239,0,0,0,1.25-1.256c0-.863-1.892-5.015-3.395-9.444,3.123-1.171,6.182-2.191,9.286-3.112l20.9,38.66C436.6,481.517,434.2,484.288,431.649,487.1Zm16.02-119.535c-3.844,10.187-15.117,20.99-22.881,23.908V368.813c.877-.331,17.7-1.29,21.962-1.29a6.394,6.394,0,0,1,.918.038Zm-78.792,94.029c-.1.185-6.9,10.5-15.026,12.209C353.98,469.586,366.873,462.222,368.877,461.591Zm104.947,4.361.008-.006h0Zm-17.965-9.02a1.15,1.15,0,0,0,1.2,1.161,116.108,116.108,0,0,0,25.391-11.366l.186.116c-6.874,10.809-20.278,15.093-20.278,17.141a1.174,1.174,0,0,0,1.177,1.17c1.07,0,9.956-5.108,13.652-8.52a3.1,3.1,0,0,1,.491-.261c-5.97,13.777-30.97,20.344-35.574,20.344-.13,0-.246,0-.355,0-1.87,0-19.27-33.878-19.27-34.135,0-.312,14.921-22.869,27.7-22.869h.026c.368,0,4.358.038,4.358,2.053,0,3.9-12.217,10.255-12.217,15.815,0,4.035,4.57,4.3,5.724,4.3,4.191,0,23.455-4.883,29.047-4.883,6.841,0,7.635,1.47,7.635,2.611,0,7.2-28.887,15.016-28.887,17.319Zm83.78-29.708a1.954,1.954,0,0,0-1.836,1.739c-.025.3-.032.592-.032.889,0,.374.011.749.011,1.123,0,33.235-.18,30.99-.475,32.905-.434.026-.784.066-1.132.066-1.586,0-6.744-.029-10.657-.029-1.17,0-1.984,0-2,0-1.133,0-1.294-.189-4.765-3.2-4.118-3.572-4.275-8.38-4.275-10.749,0-4.04,1.1-10.833,1.1-13.626,0-27.267-30.328-22.471-30.328-39.672,0-10.631,4.017-17.165,18.2-26.183a7.025,7.025,0,0,1,3.969-1.259h1.6c10.78,0,25.213-.236,27.832-.236l1.069,0c0,.436,0,.785,0,1.1,0,1.869-.013,8.256-.013,13.619,0,1.76-.037,3.167-.037,4.269,0,2.444.182,3.393,1.356,3.393,1.259,0,2.972-1.2,6.919-1.2,12.485,0,16.934,11.539,16.934,17.88,0,10.458-8.267,19.786-18.7,19.786a27.435,27.435,0,0,1-4.744-.625ZM637.9,396.2c9.514,0,19.044,5.913,19.044,15.755,0,9.509-9.89,18.6-22.611,18.6-1.251,0-1.667-.073-2.243-.073-1.236,0-1.657.432-1.657,1.687,0,.251.243,30.417.243,31.137,0,.307,0,.628,0,.983l-80.093-.28q-.068-1-.068-1.975c0-23.784,30.8-18.318,34.372-34.27,4.272-19.076,11.25-11.831,27.944-17.466,14.951-5.046,8.547-14.1,25.071-14.1ZM634,371.909a28.317,28.317,0,0,1-15.493,5.327,5.293,5.293,0,0,1-2.563-.916c-.531-.3-.6-.5-.813-1.44,5.883-2.493,15.119-8.928,15.119-10.607a1.2,1.2,0,0,0-1.118-1.2c-2.011,0-10.36,9.479-17.4,9.479a6.636,6.636,0,0,1-3.517-1.249c1.343-1.233,3.044-2.184,4.8-4.745,5.21-7.6,10.422-8.862,10.422-10.577a1.249,1.249,0,0,0-1.21-1.191c-1.158,0-7.165,4.349-10.8,9.57-.707,1.014-4.34,5.651-6.8,5.651-2.236,0-2.345-1.353-2.345-3.427,0-9.512,9.966-21.956,27.384-21.956,3.888,0,19.415,2.042,21.24,9.59.588,2.434,1.319,4.087,1.319,4.633C652.217,360.09,644.71,364.24,634,371.909Z" transform="translate(-310.629 -187.239)"/>
      <path id="路径_55" data-name="路径 55" d="M846.189,287.819c-25.892,0-48.911,18.1-48.911,40.44,0,13.4,7.583,20.854,11.445,24.883-1.5,1.133-2.781,2.483-4.757,2.724a1.1,1.1,0,0,0-1.048,1.279,1.694,1.694,0,0,0,1.42,1.9,17.369,17.369,0,0,0,4.749.751c3.226,0,5.95-1.435,6.936-1.435,1.467,0,9.511,5.682,23.822,5.682,26.45,0,48.97-18.544,48.97-40.676C888.814,303.613,870.271,287.819,846.189,287.819Zm-5.849,73.465c-14.671,0-22.729-6.042-24.338-6.042-1.175,0-2.547,1.811-7.076,1.811-.313,0-.613-.013-.892-.041,4.249-3.167,4.525-4.417,4.525-4.735a.755.755,0,0,0-.006-.084c0-1.321-1.743-1.1-2.407-1.713-7.015-6.479-10.068-14.143-10.068-22.227,0-22.847,24.6-37.7,45.7-37.7,17.766,0,40.186,10.566,40.186,32.9C885.961,346.609,861.157,361.284,840.339,361.284Z" transform="translate(-537.086 -234.043)"/>
      <path id="路径_56" data-name="路径 56" d="M378,430.074a1.133,1.133,0,0,1-1.2-1.048c0-1.173,20.2-16.817,20.985-16.817a1.1,1.1,0,0,1,1.118,1.029C398.9,414.211,378.994,429.506,378,430.074Z" transform="translate(-341.42 -291.926)"/>
      <path id="路径_57" data-name="路径 57" d="M417.126,455.458a1.243,1.243,0,0,1-1.34-1.15,1.871,1.871,0,0,1,.792-1.27c6.727-5.275,6.86-5.377,7.419-5.377a1.146,1.146,0,0,1,.858,1.877A75.244,75.244,0,0,1,417.126,455.458Z" transform="translate(-359.563 -308.424)"/>
      <path id="路径_58" data-name="路径 58" d="M561.876,304.584c-.04.677-.121,1.233-.121,1.762,0,.983.724,9.117.724,9.168a1.289,1.289,0,0,1-1.261,1.348,1.271,1.271,0,0,1-1.177-.854,45.451,45.451,0,0,1-.877-8.457c0-2.907.181-5.415,2.977-5.415.732,0,.126.054,2.684.2.023-.5.06-.916.06-1.329,0-.706-.049-10.744-.049-12.111,0-.042,0-.1,0-.166,0-.572.065-1.913,1.307-1.913,1.173,0,1.361.468,1.361,5.36,0,2.309-.042,5.6-.042,10.3,0,1.935-1.043,2.263-2.145,2.263C564.816,304.743,564.6,304.729,561.876,304.584Z" transform="translate(-426.282 -233.578)"/>
      <path id="路径_59" data-name="路径 59" d="M643.638,348.4c.063-.517-.039-2.25,1.385-2.25,2.79,0-.731,5.254,5.62,10.2,2.861,2.227,5.151.678,5.151,2.695v.023c0,.179-.055,1.308-1.769,1.308C653.486,360.372,644.64,359.018,643.638,348.4Z" transform="translate(-465.591 -261.186)"/>
      <path id="路径_60" data-name="路径 60" d="M695.648,284.649c4.708,1.186,8.842,4.673,8.842,5.883a1.274,1.274,0,0,1-1.227,1.247h-.047c-.242,0-.792-.044-2.109-1.37-3.676-3.7-6.814-2.862-6.814-4.586a1.213,1.213,0,0,1,1.356-1.174Z" transform="translate(-489.163 -232.564)"/>
      <path id="路径_61" data-name="路径 61" d="M694.938,326.69h-.023a1.28,1.28,0,0,1-1.355-1.244,1.577,1.577,0,0,1,.6-1.149c3.312-2.587,3.426-2.653,3.943-2.653a1.317,1.317,0,0,1,1.308,1.292c0,.746-.382.936-3.983,3.614a1.289,1.289,0,0,1-.489.14Z" transform="translate(-488.822 -249.783)"/>
      <path id="路径_62" data-name="路径 62" d="M649.38,326.988h-.007a3.6,3.6,0,0,1-.81-.421c-3.012-2.513-3.172-2.79-3.172-3.456a1.345,1.345,0,0,1,1.29-1.28.96.96,0,0,1,.608.213c3.341,2.661,3.622,3.254,3.622,3.5,0,.049-.011.083-.011.117A1.339,1.339,0,0,1,649.38,326.988Z" transform="translate(-466.407 -249.87)"/>
      <path id="路径_63" data-name="路径 63" d="M663.9,313.682c0,.06,0,.105,0,.132,0,.364-.02.762-.02,1.243,0,.039,0,.087,0,.142,0,.074,0,.162,0,.26,0,.792-.071,2.226-1.359,2.226-1.192,0-1.313-1.09-1.313-1.984,0-.227.008-.441.008-.622,0-.242,0-.485,0-.724,0-1.291.1-2.437,1.368-2.437C663.825,311.917,663.9,313.22,663.9,313.682Z" transform="translate(-473.764 -245.257)"/>
      <path id="路径_64" data-name="路径 64" d="M688.239,313.325c0,.186-.013.317-.013.346,0,.253,0,.537,0,.885-.057.711.1,2.5-1.386,2.5-1.205,0-1.292-1.024-1.292-1.9,0-.149,0-.293,0-.428,0-2.025.052-3.2,1.359-3.2C688.1,311.518,688.239,312.714,688.239,313.325Z" transform="translate(-485.093 -245.071)"/>
      <path id="路径_65" data-name="路径 65" d="M868.718,345.269a2.258,2.258,0,0,0-1.81-.983c-4.73,0-6.151,10.264-6.151,16.511,0,1.845,1.011,1.883,1.264,1.883h.029c1.4,0,1.2-1.29,1.451-4.642l5.755-.278c.494,3.114.251,2.681.433,3.615a1.323,1.323,0,0,0,1.267,1.156,1.517,1.517,0,0,0,1.448-1.564c0-.132.006-.264.006-.4C872.409,359.764,870.165,347.191,868.718,345.269Zm-3.553,10.1c-.426,0-.858-.01-1.3-.02.467-2.895.822-5.659,2.683-7.986.69.88,1.286,3.2,1.994,7.6a11.513,11.513,0,0,1-3.376.408Z" transform="translate(-566.626 -260.319)"/>
      <path id="路径_66" data-name="路径 66" d="M911.773,349.13c3.014-.4,5.868-1.837,6.677-1.837a1.429,1.429,0,0,1,1.409,1.385c0,1.113-.532,1.334-7.726,3.1a3.908,3.908,0,0,0-.045.6,6.588,6.588,0,0,0,.379,2c.195.611,1.577,1.4,2.98,1.4,1.878,0,4.39-1.606,5.312-1.606a1.381,1.381,0,0,1,1.286,1.4c0,1.685-3.422,2.92-6.135,2.92-.571,0-5.408-.254-6.065-3.058a25.573,25.573,0,0,1-.794-5.812c0-7.175,4.222-8.692,6.919-8.692a14.411,14.411,0,0,1,3.042.393,1.208,1.208,0,0,1,1.067,1.179,1.227,1.227,0,0,1-1.342,1.23c-.535,0-1.554-.222-2.4-.222C912.121,343.5,912.084,347.3,911.773,349.13Z" transform="translate(-589.098 -258.754)"/>
      <path id="路径_67" data-name="路径 67" d="M840.192,365.935q-.094,0-.188,0c-4.9-.106-5.389-2.693-5.389-2.8a1.316,1.316,0,0,1,1.234-1.237c.977,0,1.709,1.272,3.74,1.272a2.817,2.817,0,0,0,2.99-2.139c0-2.732-9.79-2.976-9.79-9.637,0-3.915,3.978-5.461,5.466-5.461.9,0,3.984.537,3.984,2.788a1.3,1.3,0,0,1-1.253,1.387c-1.212,0-.78-1.559-2.5-1.559a2.854,2.854,0,0,0-2.891,2.837c0,4.777,9.846,4.061,9.846,9.907C845.443,363.695,842.282,365.935,840.192,365.935Z" transform="translate(-553.611 -261.081)"/>
      <path id="路径_68" data-name="路径 68" d="M896.284,348.27c-.747,7.039-.682,12.146-4.546,12.146-1.987,0-3.795-1.734-4.666-3.621a67.8,67.8,0,0,1-3.64-10.4,1.215,1.215,0,0,1,1.23-1.244,1.441,1.441,0,0,1,1.295,1.059c1.426,3.728,3.636,11.391,5.662,11.391,2.3,0,.57-14.376,3.347-14.376,1.244,0,1.357,1.177,1.357,1.8,0,.138-.006.247-.006.31,0,.03,0,1.281-.1,2.932Z" transform="translate(-577.177 -259.825)"/>
    </g>
    <path id="路径_69" data-name="路径 69" d="M322.877,651.595a94.683,94.683,0,0,0-6.85,28.245,141.615,141.615,0,0,1,6.85-28.245Z" transform="translate(-17.332 -223.861)" fill="#5fc690"/>
    <path id="路径_70" data-name="路径 70" d="M400.251,326.876q0-5.184,0-10.193c0-45.584.569-80.093,17.084-99.164-4.332-.5-11.55-1.222-15.477-1.222-48.979,0-98.641,56.528-98.641,83.922,0,20.7,19.415,25.919,34.434,31.782,5.985-4.866,14.035-10.957,14.523-10.957a1.1,1.1,0,0,1,1.118,1.029c0,.584-7.165,6.323-13.114,10.944,6.816,2.828,12.35,6,14.093,11.226,5.3-4.154,5.459-4.244,5.974-4.244a1.222,1.222,0,0,1,1.122,1.151c0,.239.63.575-6.568,5.7.029.344.046.694.046,1.054,0,25.715-76.062,57.126-76.062,107.275,0,17.669,11.759,24.911,17.041,27.557C296.981,381.113,435.077,349.25,437.363,346.9c-5.895.043-9.24.189-36.57,1.141C400.314,343.877,400.251,326.926,400.251,326.876Z" transform="translate(0 -21.299)" fill="#5fc690"/>
    <path id="路径_71" data-name="路径 71" d="M721.842,205.654c-1.437-13.726,4.286-35.128-36.754-35.128-16.255,0-32.7,6.04-40.924,9.593a75.651,75.651,0,0,1,9.225,1.8c44.99,11.657,42.427,43.467,44.117,57.964.494,4.241,6.969,14.188,6.969,28.674,0,12.154-5.726,7.72-5.726,11.587,0,.057.224,33.819.224,36.128h0c0,2.234-1.077,2.573-2.862,2.573h-.226c-.051,0-13.609.233-15.753.346.256,1.15.346,1.809,1.406,2.455a6.436,6.436,0,0,0,1.134.531,38.128,38.128,0,0,0,5.586,1.413h0c8.021,1.6,24.693,4.111,58.384,9.736,2.135.618,4.331,1.012,6.45,1.444,8.436,1.721,9.112,3.445,10.521,3.445,1.5,0,6.517-1.548,11.888-2.716a44.443,44.443,0,0,1,9.312-1.257,36.052,36.052,0,0,1,13.11,2.542c12.394-5.942,38.674-31,38.674-64.343C836.6,197.209,726.787,252.886,721.842,205.654Zm46.752,103.812c-14.256,0-22.389-5.683-23.823-5.683-.985,0-3.71,1.435-6.936,1.435a14.4,14.4,0,0,1-2.285-.193c-3.337-.536-3.884-1.005-3.884-2.462a1.136,1.136,0,0,1,.788-1.228c2.562-.714,1.607-.2,5.018-2.774-4.525-4.72-11.445-12.027-11.445-24.883,0-24.267,25.552-40.44,48.911-40.44,24.689,0,42.625,16.279,42.625,35.551C817.564,285.3,801.315,309.465,768.595,309.465Z" transform="translate(-170.027)" fill="#5fc690"/>
  </g>
</svg>
