<svg xmlns="http://www.w3.org/2000/svg" width="26.891" height="24" viewBox="0 0 26.891 24">
  <path id="发照片" d="M82.383,109.884H71.813a2.876,2.876,0,0,0-2.876-2.876H67.01a2.876,2.876,0,0,0-2.876,2.876H61.244a2.876,2.876,0,0,0-2.876,2.876v15.373a2.876,2.876,0,0,0,2.876,2.876H82.383a2.876,2.876,0,0,0,2.876-2.876V112.76a2.885,2.885,0,0,0-2.876-2.876ZM71.813,126.22a5.767,5.767,0,1,1,5.767-5.767A5.777,5.777,0,0,1,71.813,126.22Zm9.124-9.606a1.445,1.445,0,1,1,1.445-1.445A1.446,1.446,0,0,1,80.938,116.614Z" transform="translate(-58.368 -107.008)" fill="#2c2c2c"/>
</svg>
