<svg xmlns="http://www.w3.org/2000/svg" width="18.291" height="17" viewBox="0 0 18.291 17">
  <path id="下载" d="M78.113,79.946H65.048a2.613,2.613,0,0,1-2.613-2.613V74.066a.653.653,0,0,1,.653-.653h1.307a.653.653,0,0,1,.653.653v1.96a1.306,1.306,0,0,0,1.306,1.306H76.806a1.306,1.306,0,0,0,1.306-1.306v-1.96a.653.653,0,0,1,.653-.653h1.306a.653.653,0,0,1,.653.653v3.266a2.613,2.613,0,0,1-2.613,2.613ZM66.27,67.13a.677.677,0,0,1,.957,0l3.047,3.047V63.6a.653.653,0,0,1,.653-.653h1.306a.654.654,0,0,1,.653.653v6.577l3.047-3.047a.677.677,0,0,1,.957,0l.957.958a.677.677,0,0,1,0,.957l-5.4,5.4a1.758,1.758,0,0,1-.865.28,1.808,1.808,0,0,1-.88-.28l-5.4-5.4a.677.677,0,0,1,0-.957l.958-.958Z" transform="translate(-62.435 -62.946)" fill="#1492e6"/>
</svg>
