<svg xmlns="http://www.w3.org/2000/svg" width="22.636" height="17" viewBox="0 0 22.636 17">
  <path id="云上传" d="M22.636,75.407a2.914,2.914,0,0,1-.736,1.958,3.324,3.324,0,0,1-.815.668,2.93,2.93,0,0,1-1.007.362l.023.023H4.6a2.051,2.051,0,0,1-.362.023,4.048,4.048,0,0,1-1.652-.34,4.393,4.393,0,0,1-1.347-.917,4.233,4.233,0,0,1-.905-1.347,4.324,4.324,0,0,1,0-3.3,4.233,4.233,0,0,1,.905-1.347,4.393,4.393,0,0,1,1.347-.917,4.048,4.048,0,0,1,1.652-.34h.023a2.746,2.746,0,0,1-.023-.34v-.362a7.619,7.619,0,0,1,.611-3.033,7.732,7.732,0,0,1,1.675-2.479A8,8,0,0,1,9,62.051a7.538,7.538,0,0,1,3.022-.611,7.619,7.619,0,0,1,3.033.611,7.962,7.962,0,0,1,2.49,1.664,7.732,7.732,0,0,1,1.675,2.479,7.619,7.619,0,0,1,.611,3.033,7.442,7.442,0,0,1-.181,1.641,8.421,8.421,0,0,1-.5,1.528,2.251,2.251,0,0,1,.238-.034q.124-.011.238-.011a2.98,2.98,0,0,1,2.128.894,3.175,3.175,0,0,1,.645.973A2.985,2.985,0,0,1,22.636,75.407Zm-7.923-2.694a1.107,1.107,0,0,0,.589-.1q.136-.1-.181-.487a10.017,10.017,0,0,1-.7-1.064q-.385-.656-.8-1.336t-.849-1.268a3.508,3.508,0,0,0-.838-.86,1.577,1.577,0,0,0-.6-.317.887.887,0,0,0-.555.272,4.913,4.913,0,0,0-.792.86q-.385.521-.781,1.109t-.792,1.154a8.7,8.7,0,0,1-.8,1q-.407.407-.294.724t.566.317H8.24q.2,0,.441.011t.464.011H9.53a.441.441,0,0,1,.407.215,1.274,1.274,0,0,1,.091.532q0,.385-.011.679t-.011.566q0,.272-.011.566t-.011.679a1.847,1.847,0,0,0,.034.34,1.081,1.081,0,0,0,.125.34.7.7,0,0,0,.272.26.966.966,0,0,0,.475.1h.521q.2,0,.611.023.543,0,.623-.272a3.36,3.36,0,0,0,.079-.86q0-.521.011-.939t.011-1.143a2.475,2.475,0,0,1,.1-.8.42.42,0,0,1,.441-.283q.249,0,.713-.011t.713-.011Z" transform="translate(0 -61.44)" fill="#1492e6"/>
</svg>
