<svg xmlns="http://www.w3.org/2000/svg" width="30.37" height="24" viewBox="0 0 30.37 24">
  <path id="文件夹" d="M91.521,201.067a4.679,4.679,0,0,1,1.329.35A3.444,3.444,0,0,1,94,202.2a3.2,3.2,0,0,1,.735,1.277,4.019,4.019,0,0,1,.07,1.854q-.07.28-.28,1.382t-.49,2.536q-.28,1.434-.63,2.956t-.665,2.606a7.231,7.231,0,0,1-.507,1.294,4.839,4.839,0,0,1-.857,1.207,4.313,4.313,0,0,1-1.259.892,4.035,4.035,0,0,1-1.749.35H68.99a4.088,4.088,0,0,1-1.522-.315,5.082,5.082,0,0,1-1.452-.892,4.6,4.6,0,0,1-1.085-1.4,3.98,3.98,0,0,1-.42-1.837V199.108a4.636,4.636,0,0,1,1.155-3.341,4.289,4.289,0,0,1,3.254-1.207H86.133a4.669,4.669,0,0,1,1.592.3,5.28,5.28,0,0,1,1.487.822A4.507,4.507,0,0,1,90.3,196.9a2.873,2.873,0,0,1,.42,1.5v.385H88.9q-1.4,0-3.271-.018t-3.988-.017q-2.117,0-3.953-.017t-3.166-.017H72.908a1.787,1.787,0,0,0-1.417.577,3.989,3.989,0,0,0-.787,1.522q-.28,1.015-.63,2.152t-.63,2.117q-.35,1.155-.7,2.239a1.966,1.966,0,0,0-.07.455,1.374,1.374,0,0,0,1.4,1.4q1.085,0,1.469-1.364l1.854-6.787q4.548.035,8.327.035h9.8Z" transform="translate(-64.512 -194.56)"/>
</svg>
