<svg id="组件_95_1" data-name="组件 95 – 1" xmlns="http://www.w3.org/2000/svg" width="24.618" height="36.277" viewBox="0 0 24.618 36.277">
  <path id="_3.1首页-选中" data-name="3.1首页-选中" d="M103.831,99.24l-10.8-10.659a1.629,1.629,0,0,0-2.15-.273,1.379,1.379,0,0,0-.324.3L79.786,99.241a.953.953,0,0,0,0,1.362c.339.337.835.24,1.307-.224l.724-.716L83,98.527v11.024a2.488,2.488,0,0,0,2.5,2.471h4.217v-7.028a.992.992,0,0,1,1-.983H92.9a.992.992,0,0,1,1,.983v7.028h4.217a2.489,2.489,0,0,0,2.5-2.471V98.584l1.91,1.878a1.672,1.672,0,0,0,.855.327.615.615,0,0,0,.451-.187.953.953,0,0,0,0-1.363Z" transform="translate(-79.5 -88.023)" fill="#07c160"/>
  <text id="首页" transform="translate(12 34.277)" fill="#07c160" font-size="7" font-family="'\.PingFang-SC-Medium', '\.PingFang SC'" font-weight="500"><tspan x="-7" y="0">首页</tspan></text>
</svg>
