<svg xmlns="http://www.w3.org/2000/svg" width="390" height="382.325" viewBox="0 0 390 382.325">
  <g id="打招呼" transform="translate(-278.235 -96.641)" opacity="0.8">
    <path id="Shape" d="M636.928,243c0-20.685,11.551-46.71,11.551-70.976,0-47.462-58.751-70.213-95.005-70.213-32.76,0-65.257,14.131-96.508,14.131-44.265,0-56.035-19.3-81.365-19.3-18.527,0-91.276,19.21-91.276,83.23,0,19.306,6,30.991,6,45.056,0,22.837-12.09,48.229-12.09,75.618,0,27.412,15.266,56.457,27.469,63.65,4.9-34.855,16.487-33.19,16.487-70.358a14.991,14.991,0,0,0-.138-1.891c0-1.224.927-1.549,1.6-1.962-1.425-3.345-3.55-7.563-3.55-14.113a33.6,33.6,0,0,1,.6-5.758c0-1.481-11.389-15.771-11.389-26.207,0-.8.277-6.992,4.3-6.992,4.937,0,11.068,14.162,13.125,15.461-2.778-14.41-4.569-19.917-4.569-25.389,0-5.079,1.246-8.377,3.744-8.377,7.353,0,15.026,31.108,16.868,33.342-1.553-16.081-1.52-15.647-1.52-22.39,0-10.046.923-16.064,6.01-16.064,8.517,0,9.616,38.649,10.455,39.644.218-.7,2.414-14.148,8.524-14.148,3.989,0,4.683,5.239,4.683,10.073,0,21.618-10.216,42.5-10.235,42.552,1.2.09,2.257.187,3.317.243a1.646,1.646,0,0,1,1.61,1.64c0,1.2-2.139,5.064-2.139,11.581,0,37.1,20.752,40.261,30.667,76.223,38.689-25.4,62.935-21.688,62.935-31.464,0-.316-.021-.692-.021-1.033,0-.127,0-.253.01-.378-.336-.016-.569-.046-.781-.046-.8,0-19.646,1.618-21.208,1.618-3.275,0-.261-1.146-4.948-59.557a1.412,1.412,0,0,0-1.092-1.288,7.033,7.033,0,0,1-4.552-5.651c0-1.388.154-1.8.154-2.239,0-.065-.008-.412-.008-1.053,0-14.732,4.317-24.427,4.317-26.838,0-1.882-2.458-8.09-2.458-19.87,0-51.739,46.155-74.421,77.707-74.421,100.548,0,83.852,113.04,88.04,186.373-1.21.493-42.513,1.3-48.673,1.977,2.7,1.569,38.025,18.052,64.891,48.186.037,0,.067.007.107.007,2.407,0,49.735-11.293,59.655-65.282l-.024-9.028c-1.24-3.028,1.456-13.814-23.482-52.513A44.865,44.865,0,0,1,636.928,243ZM408.27,171.486a23.33,23.33,0,0,1-4.237,13.094c-5.191,7.756-6.663,4.875-6.663,10.064,0,4.26,2.181,8.866,4.281,8.931a1.892,1.892,0,0,1,1.781,1.976c0,.737-.111,1.963-3.746,1.963-7.58,0-11.822-7.242-13.715-8.791a62.312,62.312,0,0,1-24.992,5.044c-21.29,0-40.283-11.1-40.283-27.805,0-20.171,26.2-32.212,46.866-32.212C401.314,143.751,408.27,164.3,408.27,171.486ZM530.107,422.358c-6.649,0-7.39,5.054-7.39,7.546,0,13.452,17.613,28.569,27.049,28.569,7.661,0,25.294-21.254,25.294-34.979,0-1.871-.336-5.787-4.1-5.787-8.1,0-17.728,12.933-17.76,13.3.843,1.138,1.729,2.139,1.729,3.943,0,2.138-1.518,4.338-3.749,4.338-2.879,0-3.54-2.9-3.54-3.551a25.281,25.281,0,0,1,.576-3.744c0-1.045-9.509-9.629-18.1-9.629Z" fill="#5fc690"/>
    <path id="路径_2" data-name="路径 2" d="M567.43,406.5c5.724-.629,47.59-1.536,48.673-1.977-4.188-73.333,12.508-186.374-88.04-186.374-26.064,0-77.707,18.57-77.707,74.421,0,11.782,2.458,18.026,2.458,19.87,0,2.411-4.317,12.107-4.317,26.838,0,.637.008,1,.008,1.054,0,.434-.154.85-.154,2.238a7.081,7.081,0,0,0,4.552,5.651,1.412,1.412,0,0,1,1.092,1.288c4.687,58.413,1.673,59.557,4.948,59.557,1.537,0,20.417-1.618,21.207-1.618.212,0,.446.029.781.046-.007.125-.01.25-.01.376,0,.338.021.722.021,1.034,0,9.776-24.246,6.064-62.935,31.464-9.909-35.942-30.667-39.121-30.667-76.222,0-6.517,2.139-10.382,2.139-11.582a1.646,1.646,0,0,0-1.61-1.64c-1.06-.057-2.117-.154-3.317-.244.019-.048,10.235-20.934,10.235-42.552,0-4.8-.681-10.074-4.683-10.074-6.1,0-8.31,13.457-8.524,14.148-.84-.995-1.938-39.644-10.455-39.644-4.984,0-6.011,5.768-6.011,16.066,0,6.739-.033,6.311,1.52,22.388-1.842-2.233-9.515-33.342-16.868-33.342-2.491,0-3.744,3.284-3.744,8.377,0,5.473,1.79,10.974,4.569,25.389-2.056-1.3-8.187-15.461-13.125-15.461-4.026,0-4.3,6.188-4.3,6.992,0,10.452,11.388,24.718,11.388,26.207a33.588,33.588,0,0,0-.6,5.758c0,6.55,2.124,10.766,3.55,14.113-.675.413-1.6.738-1.6,1.962a15.033,15.033,0,0,1,.138,1.891c0,43.6-15.947,33.752-18.336,92.113-.045,1.1-.264,2.194-.4,3.291.009,3.486.011,4.149.015,5.556,1.18,8.065,3.191,58.689,36.34,84.169h.463a2.539,2.539,0,0,0,1.769-2.57c0-2.132-1.144-2.527-1.693-2.527-.355,0-.508.093-.809.093-4.32,0-32.29-34.381-32.29-82.385,0-30.808,9.706-69.314,20.458-70.29a1.7,1.7,0,0,0,1.642-1.71c0-1.591-1.325-1.976-3.424-1.976-.858,0-1.819.016-2.491.018a109.278,109.278,0,0,0,2.1-19.943c0-1.819-.065-3.243-.11-4.054,8.012.531,32.542,1.316,35.949,1.7-.794,3.865-1.463,5.7-1.463,10.252,0,4.9.919,12.341.936,12.5l-.959,0c-.873,0-1.45-.016-2.163-.016h-.4c-1.037,0-3.142.071-3.142,1.887,0,2.156,2.884,1.834,5.527,3.555.767.5,1.6.893,2.486,1.375,10.216,24.795,28.847,47.081,28.847,58.549,0,2.22-12.1,9.849-12.1,27.346,0,5.193,2.441,13.489,7.914,13.489,4.948,0,8.8-5.225,8.8-24.929,0-9.555-.819-9.049-.819-12.767a1.66,1.66,0,0,1,.6-1.548c16.32-12.643,26.241-15.446,37.344-19.341,7.034,9.508,27.516,37.163,67.319,37.163,41.025,0,60.736-30.917,64.884-37.057a3.727,3.727,0,0,0,.639.231c.114,0,.289-.215.7-.215,6.116,0,68.829,43.573,68.829,99.142,0,.668-.026,1.352-.026,2.068v.076c-1.33.689-9.5,5.774-29.32,5.774-22.841,0-43.708-6.279-54.011-10.93,14.619-6.007,26.817-26.915,26.817-38.55,0-1.494-.289-9.193-7.618-9.193-9.166,0-18.444,11.81-20.261,13.891a1.469,1.469,0,0,1-.375.052c-1.252,0-9.856-9.363-20.117-9.363-3.891,0-11.072,1.675-11.072,11.311,0,28.773,48.4,46.3,86.557,46.3,22.027,0,29.871-5.865,31.169-6.114,1.531-.293,2.018-.773,2.018-2.206C662.746,450.383,569.052,407.442,567.43,406.5ZM364.856,349.825c6.881-17.149,15.274-17.51,15.274-20.2v0a1.739,1.739,0,0,0-1.715-1.733c-.846,0-10.4,4.112-16.873,21.654-.7,0-1.543.017-2.237.017-2.232,0-3.893-.159-6.084-.216-2.941-.078-5.706-8.935-5.706-14.253,0-3.474.722-5.138.722-6.143,0-3.228-11.364-15.072-11.364-26.178a5.99,5.99,0,0,1,.55-3.244c4.3,1.942,14.016,23.3,16.052,23.3a2.89,2.89,0,0,0,2.343-2.907c0-2.637-6.256-28.131-6.256-33.693a39.469,39.469,0,0,1,.442-4.725c6.245,4.037,13.986,40.2,18.34,40.2a2.752,2.752,0,0,0,2.356-2.449c0-8.333-2.077-19.531-2.077-29.1,0-13.349,1.681-14,2.347-14,5.729,0,5.272,46.671,10.508,46.671,4.944,0,1.687-13.5,7.628-20.356a.921.921,0,0,1,.705-.324.974.974,0,0,1,.976.861,38.02,38.02,0,0,1,.358,5.009c0,18.193-8.15,37.523-10.04,42.526Zm51.134,108.012c0,.256-.066,21.933-5.279,21.933-2.016,0-4.311-4.284-4.311-10.18,0-6.169,1.954-13.986,8.807-21.511.1.555.783,2.918.783,9.758Zm107.421.457c-28.4,0-52.219-17.28-63.073-34.54,5.1-2.449,24.092-4.516,24.092-15.316,0-3.135-5.132-56.828-5.132-59.251,0-.623.112-.938.112-1.349,0-2.244-6.7-1.949-7.382-1.949-2.457,0-5.272.1-8.028.1-11.638,0-12.226-1.4-12.226-7.409,0-15.714,10.051-57.618,39.058-69.4,5.5,24.132,15.815,16.778,32.676,21.886,18.446,5.589,11.179,23.158,32.271,32.289a2.594,2.594,0,0,0,1.022.234c1.616,0,1.581-1.78,1.581-1.862,0-1.184-.607-10.185-.607-14.235,0-4.146,1.033-25.392,10.83-25.392,10.169,0,13.475,9.514,13.475,17.818,0,2.26-.61,33.642-5.989,35.382-1.166.377-2.337.738-3.634,1.146-.43-2.527-.534-4.85-2.224-4.85a1.737,1.737,0,0,0-1.725,1.669c0,.345.126.891.637,3.666a59.389,59.389,0,0,1-8.3,1.691c-.3,0-.388-.027-.641-.027-1.78,0-2.6,1.516-2.6,3.733,0,.611,1.076,65.231,4.33,66.061,4.147,1.056,16.524,7.775,24.083,14.123-3.736,6.249-22.838,35.776-62.607,35.776Zm50.2,59.238c-9.537,0-27.049-15.234-27.049-28.569,0-2.492.741-7.546,7.39-7.546,9.159,0,18.1,8.891,18.1,9.629a25.287,25.287,0,0,0-.575,3.744c0,.619.667,3.551,3.54,3.551,2.22,0,3.749-2.188,3.749-4.337,0-1.756-.841-2.744-1.729-3.943.034-.369,9.672-13.3,17.76-13.3,3.768,0,4.1,3.916,4.1,5.787C598.908,496.284,581.276,517.532,573.614,517.532Z" transform="translate(-23.848 -59.059)"/>
    <path id="路径_3" data-name="路径 3" d="M401.138,248.323a62.313,62.313,0,0,0,24.992-5.044c1.893,1.549,6.134,8.791,13.715,8.791,3.638,0,3.746-1.225,3.746-1.963a1.892,1.892,0,0,0-1.781-1.976c-2.1-.065-4.281-4.669-4.281-8.931,0-5.189,1.472-2.308,6.663-10.064a23.331,23.331,0,0,0,4.237-13.095c0-6.914-6.727-27.735-40.708-27.735-21.728,0-46.866,12.722-46.866,32.212C360.854,237.22,379.868,248.323,401.138,248.323ZM364.417,220.6c0-13.727,17.613-28.731,43.477-28.731,17.1,0,37.007,8.275,37.007,24.107,0,11.78-10.524,17.181-10.524,19.184a7.753,7.753,0,0,1,.112,1.229c0,1.3-.3,2.184-.3,3.89a16.86,16.86,0,0,0,1.654,6.92l-.2.144c-5.275-2.859-5.693-5.544-6.17-5.832-1.171-.708-2.1-1.608-3.407-1.608-2.459,0-10.142,4.884-24.956,4.884-18.877,0-36.69-9.46-36.69-24.187Z" transform="translate(-40.158 -44.554)"/>
    <path id="路径_4" data-name="路径 4" d="M792.511,386.909c1.287,0,1.656-1.737,3.382-1.737a2.176,2.176,0,0,1,.528.067c.017.207.049.393.049.558,0,.207-.364,9.21-.364,9.261,0,1.793,1.345,1.921,1.645,1.921,1.517,0,2.026-.6,2.026-10.827,0-1.772.113-4.4-2.864-4.4-.755,0-1.54.1-2.386.164a4.144,4.144,0,0,1-.061-.414c0-.958,1.257-14.871,1.257-15.223,0-1.435-.879-1.847-1.524-1.847-1.95,0-1.841,1.376-3.183,18.393-.069.878-.127,1.738-.127,2.5C790.888,386.841,792.486,386.909,792.511,386.909Z" transform="translate(-249.181 -130.163)"/>
    <path id="路径_5" data-name="路径 5" d="M681.616,431.1c-2.643,0-3.361,10.649-12.861,12.652a1.8,1.8,0,0,0-1.368,1.629c0,.811.588,1.586,1.822,1.786,1.215-.426,9.492-1.918,13.923-13.8a1.854,1.854,0,0,0,.121-.65,1.632,1.632,0,0,0-1.637-1.613Z" transform="translate(-189.152 -162.567)"/>
    <path id="路径_6" data-name="路径 6" d="M625.521,360.666a1.681,1.681,0,0,0-1.552-1.6c-1.113,0-7.649,5.153-7.933,5.459a1.612,1.612,0,0,0-.466,1.107v.012c0,.137.019,1.579,1.871,1.667,1.012-.544-.244.45,7.047-4.99A2.16,2.16,0,0,0,625.521,360.666Z" transform="translate(-163.966 -127.553)"/>
    <path id="路径_7" data-name="路径 7" d="M642.1,392.668c-2.084,0-2.289,2.52-2.289,3.074,0,2.217,1.427,5.276,3.5,5.276,1.82,0,1.89-2.219,1.962-2.635-.226-1.68-.269-3.311-1.388-4.643A2.375,2.375,0,0,0,642.1,392.668Z" transform="translate(-175.751 -143.887)"/>
    <path id="路径_8" data-name="路径 8" d="M675.48,398.981c2.851,0,2.873-3.414,2.873-3.677,0-.573-.428-3.948-2.628-3.948-1.139,0-2.217.724-2.643,3.7C673.555,396.837,673.749,398.981,675.48,398.981Z" transform="translate(-191.92 -143.25)"/>
    <path id="路径_9" data-name="路径 9" d="M692.547,403.23c-.558.224-.827-.018-3.97,2.949a1.657,1.657,0,0,0-.6,1.19c0,.064.185,1.449,1.417,1.449.616,0,1.037-.277,3.575-2.361.79-.649,1.021-1.17,1.021-1.61C693.993,404.007,693.157,403.672,692.547,403.23Z" transform="translate(-199.161 -149.021)"/>
    <path id="路径_10" data-name="路径 10" d="M633.87,410.06c-2.5-1.856-3.837-1.884-3.995-1.884a1.466,1.466,0,0,0-1.512,1.465c0,.978.676,1.253,3.231,2.595a2.657,2.657,0,0,0,1.285.462,1.593,1.593,0,0,0,1.521-1.717c0-.008,0,0,0-.045a2.388,2.388,0,0,0-.53-.876Z" transform="translate(-170.184 -151.425)"/>
    <path id="路径_11" data-name="路径 11" d="M407.579,236.162v.01c0,8.237-.532,10.649,1.793,10.649,1.4,0,1.792-1.032,1.792-3.038,0-.946-.027-.128-.036-3.908l7.97-.021c.318,4.535.005,6.428,2.05,6.428a1.784,1.784,0,0,0,1.764-1.954c0-.1-.786-14.873-.855-15.209a1.844,1.844,0,0,0-1.756-1.64c-1.625,0-1.772,1.71-1.772,2.075v.008c0,.027,0,.027,0,.036,0,.045.027.332.375,6.621-1.044.011-2.567.028-3.923.028-1.282,0-2.563-.014-3.857-.058,0-1.259,0-2.208,0-2.94,0-.347,0-.645,0-.9,0-1.306,0-1.623-.041-2.206a1.744,1.744,0,0,0-1.73-1.651c-.965,0-1.784.7-1.784,2.157C407.564,230.757,407.562,229.726,407.579,236.162Z" transform="translate(-62.844 -63.595)"/>
    <path id="路径_12" data-name="路径 12" d="M480.191,240.369a1.7,1.7,0,0,0,1.626-1.2c.029-.1.281-10.852.281-10.907,0-.61-.012-3.234-.012-3.262,0-.063,0-.125,0-.188,0-2.275-1.614-2.277-1.777-2.277-1.7,0-1.91.435-1.91,10.783C478.4,237.955,477.969,240.369,480.191,240.369Z" transform="translate(-97.276 -61.19)"/>
    <path id="路径_13" data-name="路径 13" d="M466.123,239.2c0,.079-.007.215-.007.386,0,.787.145,2.307,1.767,2.307,1.453,0,1.823-.684,1.823-5.534,0-1.981-.064-6.115-.064-8.778,0-.1,0-.211,0-.339,0-.957-.1-2.639-1.765-2.639-1.495,0-1.83.759-1.83,5.341C466.048,231.971,466.123,236.288,466.123,239.2Z" transform="translate(-91.289 -62.199)"/>
    <path id="路径_14" data-name="路径 14" d="M448.82,237.685c-1.6,0-1.746,1.457-1.746,2.543,0,.082.349,7.374.4,8.156a1.747,1.747,0,0,0,1.768,1.837c1.637,0,1.737-1.4,1.737-2.622C450.977,238.9,450.616,237.685,448.82,237.685Z" transform="translate(-82.066 -68.556)"/>
    <path id="路径_15" data-name="路径 15" d="M480.05,262.964h.054a2.213,2.213,0,0,0,1.791-2.152,1.542,1.542,0,0,0-1.54-1.554,2.285,2.285,0,0,0-1.995,2.082A1.669,1.669,0,0,0,480.05,262.964Z" transform="translate(-97.274 -79.042)"/>
    <path id="路径_16" data-name="路径 16" d="M448.563,230.426a1.66,1.66,0,0,0,1.675-1.55v0a1.786,1.786,0,0,0-1.755-1.7,1.589,1.589,0,0,0-1.665,1.572A1.759,1.759,0,0,0,448.563,230.426Z" transform="translate(-81.942 -63.444)"/>
    <path id="路径_17" data-name="路径 17" d="M468.349,262.41a1.556,1.556,0,0,0,1.544,1.539,1.746,1.746,0,0,0,1.691-1.646,1.546,1.546,0,0,0-1.544-1.511,1.7,1.7,0,0,0-1.692,1.617Z" transform="translate(-92.407 -79.788)"/>
  </g>
</svg>
