<svg xmlns="http://www.w3.org/2000/svg" width="390" height="413.486" viewBox="0 0 390 413.486">
  <g id="收入" transform="translate(-307.815 -144.098)" opacity="0.8">
    <path id="路径_98" data-name="路径 98" d="M324.922,445.415c2.265-7.568,5.192-16.161,8.956-26.27,15.914-42.744,6.05-42.139,12.967-44.165-3.193-6.321-10.7-18.7-10.7-30.572,0-5.313,1.565-8.366,2.8-10.093.691-.967.021-4.479,3.579-10.529.68-1.156,1.325-3.6,4.056-3.6,14.23,0,22.089,33.182,36.556,33.182,7.84,0,12.961-9.6,18.261-9.6,3.408,0,4.15,3.617,4.15,4.833a3.173,3.173,0,0,1,.028.34c0,1.086-.987,4.914-14.58,16.426-7.815,9.007-10.182,12.161-10.892,13.749,1.618.63,2.835.963,2.835,2.477,0,2.584-2.193,14.561-2.193,25.343,0,21.4,12.662,55.345,13.375,57.133a2.218,2.218,0,0,0,.486-.221c17.72-14.544,63.557-27.236,73.343-41.673a8.024,8.024,0,0,0-.909-.116c-.1,0-47.574.728-47.638.728-1.826,0-2.494-.558-2.746-2.432a358.966,358.966,0,0,1-3.494-45.716c0-.568,0-.888,0-.943,0-70.974,25.249-134.034,82.548-134.034,38.734,0,81.952,31.354,81.952,74.6,0,8.521-1.868,13.191-1.868,14.877,0,1.56,5.1,16.191,5.1,25.449a11.3,11.3,0,0,1-7.17,10.607c-2.888,53.746-2.36,57.217-3.938,57.217-.234,0-.514-.076-.859-.076-1.736,0-13.912-.1-14.7-.1h-.916c4.243,12.929,41.142,6.657,65.21,37.891,6.611-41.257,21.955-54.616,21.955-84.2,0-3.316-.187-5.037-.187-6.005,0-.443.015-.9.015-1.375a8.37,8.37,0,0,1,2.352-.294c.977,0,1.935.1,2.88.1.285,0,.569-.009.852-.034a2.168,2.168,0,0,0,.043-.216.1.1,0,0,0-.01-.048c-10.343-19.449-21.545-25.618-21.545-32.21,0-1.822,1.431-4.792,4.162-4.792,6.082,0,9.65,11.868,18.857,11.868,10,0,19.23-17.124,29.147-24.913-3.266-17.143-8.452-24.183-9.153-25.916,4.262-2.991,6.786-3.466,6.786-4.978a1.451,1.451,0,0,0-1.455-1.428c-.807,0-1.03.22-6.968,3.467l-11.919-19.217c.691-.523,1.576-1.175,2.577-1.968h-.063c-2.443,0-9.363-.069-9.418-.069-2.452,0-7.956,6.436-21.229,6.436-6.721,0-10.643-1.622-10.643-3.368a1.59,1.59,0,0,1,1.557-1.575c.956,0,2.82,1.834,8.387,1.834,25.825,0,32.071-22.458,32.071-31.047A31.139,31.139,0,0,0,626.232,208.9c-2.489,0-6.154.723-7.64.723a1.516,1.516,0,0,1-1.636-1.535,1.629,1.629,0,0,1,1.19-1.5,38.175,38.175,0,0,1,8.157-.846c18.514,0,25.2,12.648,28.261,13.039,12.07,1.542,12.324,1.572,12.324,2.639a.99.99,0,0,1-1.1,1.015c-.8,0-9.4-1.321-9.911-1.321-.212,0-.43.015-.656.015a2.536,2.536,0,0,0,2.508,2.048c10.7,1.213,10.761,1.427,10.761,2.309v.028c0,.479-.219,1.046-1.172,1.046-.735,0-8.851-1.233-9.3-1.233-.132,0-.257.01-.362.01l2.863,9.165c8.974,1.492,10.583,1.229,10.583,2.5,0,.24-.048,1.051-1.2,1.051-.867,0-6-.984-9.328-1.307q.127,1.593.128,3.16a34.528,34.528,0,0,1-2.361,12.69c7.524.739,8.949.709,8.949,1.9,0,.98-1.022,1.02-1.266,1.02-.654,0-.961-.214-8.467-1l-1.38,2.646c7.69.817,8.637.648,8.637,1.823,0,.563-.335,1.062-1.222,1.062-.375,0-7.85-.794-8.021-.794a1.365,1.365,0,0,0-1.3.78c-.252.443-.59.838-.984,1.385a27.825,27.825,0,0,0,4.052.247c.64,0,1.238-.01,1.779-.01,1.838,0,3.027.113,3.027,1.107a1.018,1.018,0,0,1-.152.564,35.074,35.074,0,0,0,9.673-24.81c0-22.471-19.24-36.385-37.711-36.385a41.273,41.273,0,0,0-22.5,6.849,4.683,4.683,0,0,0,.068-.793c0-10.965-21.2-25.677-25.582-29.724,3.263-6.8,3.331-6.8,3.331-7.47a1.453,1.453,0,0,0-1.493-1.421c-1.112,0-1.242.659-4.543,6.916-35.675-23.592-58.42-19.17-63-22.769a41.033,41.033,0,0,0-26.755-9.617c-17.893,0-26.23,9.854-28.6,10.213-36.88,5.576-56.132,17.349-58.149,18.1-2.845-5.777-3.454-7.484-4.733-7.484a1.509,1.509,0,0,0-1.534,1.48c0,.928.3,1.312,3.53,7.833-1.253.794-29.78,21.257-35.145,33.324a47.542,47.542,0,0,0-10.134-1.232c-21.641,0-38.5,17.045-38.5,36.348,0,14.47,7.845,21.54,7.845,22.978,0,1.854-1.985,2.229-7.276,36.744a3.976,3.976,0,0,1-.591.11c-.861,0-10.786-.345-10.841-.345a1.466,1.466,0,0,0-1.547,1.487c0,1.843,1.347,1.591,12.538,2.323a158.453,158.453,0,0,0-.861,16.346c0,.985.018,3.483.018,6.85,0,30.761-5.967,39.228-5.967,59.849C313.543,413.8,321.14,436.637,324.922,445.415ZM612.388,260.394c-1.085,0-8.617-6.525-8.617-9.937a1.233,1.233,0,0,1,1.264-1.4h.013a1.967,1.967,0,0,1,1.782,1.286c3.25,6.159,7.224,6.751,7.224,8.6A1.618,1.618,0,0,1,612.388,260.394Zm.888-26.3c0-2.276,1.321-2.292,3.933-2.292h.113c.608,0,1.215.009,1.823.016a1.717,1.717,0,0,1,1.831,1.638c0,1.439-1.466,1.518-1.95,1.518h-.13c-.249,0-.5-.008-.748-.008-1.734,0-1.4.007-1.762.183l.264,2.109c.871-.079,1.634-.208,2.394-.208a4.158,4.158,0,0,1,4.333,4.184c0,4.852-4.663,6.341-6.6,6.341a1.569,1.569,0,0,1-1.64-1.568c0-2.594,4.855-1.173,4.855-4.676,0-.586-.367-.917-1.075-.917-1.267,0-2.485.628-3.5.628-1.282,0-2.139-.284-2.139-6.946Zm13.8-19.551a21.266,21.266,0,0,1,6.648,1.216l.76-.055.067.258-.127.042c7.921,2.936,16.688,10.437,16.688,23.752,0,9.375-6.047,23.465-24.714,25.033-4.128-.043-11.6-1.361-11.6-3.572a1.382,1.382,0,0,1,1.525-1.414c1.885,0,4.151,1.806,9.665,1.806a21.96,21.96,0,0,0,3.075-43.705c-2.411-.336-3.712.3-3.712-1.7a1.614,1.614,0,0,1,1.727-1.661Zm1.258,21.365c0-2.615,1.572-2.463,1.572-3.724,0-.293-.2-1.5-.2-2.606,0-1.356.826-1.747,1.508-1.747,1.653,0,1.565,2.115,1.79,3.588.487.159,3.281.658,3.281,2.959a1.531,1.531,0,0,1-1.487,1.553c-.8,0-1.33-.8-1.7-1.256-.12.045-1.473.327-1.473,1.245,0,1.616,5.19,1.99,5.19,6.162,0,2.5-2.158,3.651-2.869,4.108a21.92,21.92,0,0,1,.344,2.648c0,1.2-.458,1.893-1.462,1.893-2.611,0-.971-3.763-2.573-4.556-.042-.021-2.243-1.135-2.243-2.554A1.659,1.659,0,0,1,629.608,242c1.145,0,1.485,1.093,2.472,1.093.5,0,1.3-.371,1.3-1.018,0-1.958-5.045-1.62-5.045-6.173Zm-6.53-21.092c.563,0,1.652.277,1.652,1.361a2.005,2.005,0,0,1-1.206,1.755c-.464.184-18.234,3.7-18.234,21.749a38.116,38.116,0,0,0,.472,4.827,1.52,1.52,0,0,1-1.533,1.551c-1.982,0-1.859-3.286-2.161-6.417q0-.112,0-.224c0-18.715,18.335-24.6,21.01-24.6ZM472.734,200.957c-3.441-1.58-8.444-7.653-8.444-9.937a1.372,1.372,0,0,1,1.363-1.395,2.074,2.074,0,0,1,1.758,1.3c3.441,6.364,7.211,6.707,7.211,8.56,0,.961-.912,1.46-1.888,1.472Zm2.646.753a1.324,1.324,0,0,1,1.464-1.306c2.116,0,4.135,1.781,9.7,1.781a21.958,21.958,0,0,0,3.306-43.673c-2.551-.375-3.9.194-3.9-1.66a1.574,1.574,0,0,1,1.339-1.72c7.418,0,24.416,6.285,24.416,25.178,0,11.815-9.511,25.018-25.11,25.018-4.239,0-11.211-1.528-11.211-3.617Zm5.652-19.816c-.455,0-.7.137-1.132.137a1.732,1.732,0,0,1-1.888-1.7c0-.721.292-1.078,1.733-3.761a15.282,15.282,0,0,1-2.151.283,1.471,1.471,0,0,1-1.584-1.518v-.011a1.389,1.389,0,0,1,.644-1.174c.921-.637,4.767-.971,5.252-.971a1.7,1.7,0,0,1,1.916,1.726c0,.828-.43,1.58-1.308,3.654.63.431,3.109,1.211,3.109,4.346,0,3.353-3.277,5.956-6.8,5.956h-.165c-.626,0-2.424-.089-2.424-1.8a1.6,1.6,0,0,1,1.712-1.572c.092,0,.217.009.471.009,3,0,3.833-1.962,3.833-2.631,0-.6-.454-.972-1.218-.972Zm7.911-5.73c0-2.134,1.852-2.263,1.852-4.254,0-.281-.032-.442-.032-1.052,0-.059,0-.134,0-.22,0-.726.079-2.291,1.563-2.291,1.682,0,1.542,2.049,1.642,3.954.9.379,2.473.726,2.473,2.2a1.455,1.455,0,0,1-1.452,1.476c-.695,0-1.156-.454-1.714-.454-.32,0-.893.268-.893.586,0,1.895,5.244,3.23,5.244,7.811a5.5,5.5,0,0,1-2.531,4.792,1.249,1.249,0,0,0-.732,1.159c0,.234.139,1.107.139,2.184,0,1.557-1.159,1.643-1.478,1.643-1.732,0-1.758-1.8-1.758-3.4,0-.264.007-.528.007-.79-2.088-1.149-3.582-1.7-3.582-2.98a1.643,1.643,0,0,1,1.632-1.631c1.165,0,2.11,1.217,3.25,1.217,1.53,0,1.7-2.046,1.7-2.271,0-2.191-5.321-4.276-5.321-7.677ZM478.62,147.224a38.411,38.411,0,0,1,8.343-.919c18.6,0,24.989,12.64,28.2,13.06,12.259,1.6,12.3,1.533,12.3,2.679h0a.954.954,0,0,1-1.04.973c-.537,0-5.139-.666-10.637-1.429a2.558,2.558,0,0,0,2.574,2.179c10.529,1.115,10.731,1.467,10.731,2.245,0,.031,0,.063,0,.1a1,1,0,0,1-1.15,1.04c-.631,0-8.763-1.228-9.28-1.228-.153,0-.3.012-.41.012l2.845,9.167c9.506,1.5,10.589,1.279,10.589,2.507,0,.464-.264,1.039-1.192,1.039-.83,0-6.909-1.131-9.093-1.275-.515,10.011.06,5.893-2.211,15.8,6.154.912,8.65.313,8.65,2.092,0,.658-.769.849-1.107.849-.433,0-4.817-.671-8.6-1l-1.342,2.643c8,.829,8.6.647,8.6,1.836,0,.91-.783,1.045-1.237,1.045-.338,0-7.792-.794-8-.794a1.326,1.326,0,0,0-1.275.749c-.251.447-.581.849-.978,1.419a34.364,34.364,0,0,0,4.413.24c.5,0,.972,0,1.4,0,1.893,0,3.017.091,3.017,1.082,0,1.029-.932,1.063-1.368,1.063h-.085c-1.272,0-8.2-.2-8.256-.2a2.3,2.3,0,0,0-1.93.829,8.3,8.3,0,0,1-1.2.984l.158.28a19.432,19.432,0,0,0,2.773.165c1.181,0,2.349-.057,3.358-.057,1.773,0,3.054.176,3.054,1.144,0,.686-.543,1.021-1.723,1.021-2.066,0-9.45-.065-9.5-.065-2.438,0-7.942,6.426-21.243,6.426-6.78,0-10.625-1.638-10.625-3.36a1.606,1.606,0,0,1,1.547-1.583c.975,0,2.8,1.824,8.4,1.824,22.789,0,32.078-18.65,32.078-31.032a31.143,31.143,0,0,0-31.369-31.29c-2.529,0-6.063.726-7.614.726a1.488,1.488,0,0,1-1.613-1.565,1.45,1.45,0,0,1,1.063-1.413Zm3.772,8.178c.574,0,1.641.249,1.641,1.358a1.994,1.994,0,0,1-1.2,1.755c-.463.182-18.23,3.7-18.23,21.751a38.79,38.79,0,0,0,.465,4.736,1.483,1.483,0,0,1-1.517,1.629c-1.831,0-1.7-2.229-2.223-6.475C461.4,159.69,481.22,155.4,482.391,155.4ZM339.505,262.061c0,.184-.047,1.48-1.906,1.48h-.038c-3.475-1.633-8.432-7.825-8.432-9.713a1.482,1.482,0,0,1,1.431-1.619,1.793,1.793,0,0,1,1.541,1.02c3.627,6.77,7.4,6.984,7.4,8.813Zm5.215-11.932c.522,0,.991-.01,1.438-.01,1.526,0,3.045.107,3.045,1.68,0,1.663-1.8,1.673-2.074,1.673h-.009c-8.413,0-9.642-.019-9.642-1.764,0-1.533,1.525-1.65,2.178-1.65.117,0,.206,0,.253,0,.431,0,.877.014,1.356.014V239.386c-1.824,1.352-2,1.624-2.68,1.624a1.68,1.68,0,0,1-1.647-1.631,2.066,2.066,0,0,1,.871-1.561c4.258-3.816,4.449-4.059,5.248-4.059.282,0,1.687.122,1.687,2.116,0,.055-.024,7.469-.024,13.212,0,.309,0,.642,0,1.042Zm-4.456,14.3a1.406,1.406,0,0,1,1.591-1.459c1.77,0,4.024,1.81,9.621,1.81,5.482,0,20.409-2.971,21.965-21.937a21.974,21.974,0,0,0-19.238-21.8c-2.234-.271-3.407.2-3.407-1.638a1.652,1.652,0,0,1,1.768-1.7c8.668,0,24,7.7,24,25.448,0,11.024-8.98,24.779-25.15,24.779-3.794,0-11.146-1.4-11.146-3.5Zm10.877-25.467a5.147,5.147,0,0,1,3.089-4.987c0-.454,0-.923,0-1.4,0-1.9-.049-1.443-.049-1.854s.279-1.707,1.51-1.707a1.627,1.627,0,0,1,1.5,1.287,19.1,19.1,0,0,1,.23,3.176c.386.065,4.032.386,4.032,2.207a1.5,1.5,0,0,1-1.427,1.493,15.745,15.745,0,0,0-2.641-.452c-2.567,0-2.89,1.073-2.89,2.12a1.237,1.237,0,0,0,.758,1.2c1.579.753,7.656,2.3,7.656,7.4,0,3.93-3.528,5.36-5.039,6.269.038.552.14,1.761.14,2.423,0,1.924-1.073,2.288-1.627,2.288h0c-.086,0-1.585,0-1.585-1.912,0-.056.005-.377.005-1.087,0-.562,0-1.131,0-1.716-2.26-.908-3.893-2.866-3.893-3.979a1.623,1.623,0,0,1,1.588-1.618c1.743,0,1.893,2.33,3.693,2.33.249,0,3.335-.652,3.335-3.243,0-3.476-8.379-2.754-8.379-8.238Zm17.81-31.39h0Zm-25,2.1a42.418,42.418,0,0,1,7.772-.747c18.585,0,25.344,12.67,28.147,13.022,12.022,1.507,12.432,1.52,12.432,2.845,0,.772-.828.814-1.064.814h-.057c-1.374,0-6.677-.963-10.56-1.387a2.619,2.619,0,0,0,2.522,2.142c10.666,1.111,10.813,1.506,10.813,2.342,0,1.037-1,1.038-1.258,1.038h0c-.762,0-7.443-1.034-9.715-1.268a7.44,7.44,0,0,0,.27.921c3.056,6.775,1.49,8.2,3.439,8.464,9.452,1.283,9.868,1.378,9.868,2.338,0,.5-.237,1.041-1.227,1.041-.8,0-6.138-.954-9.295-1.323q.12,1.564.121,3.105a34.626,34.626,0,0,1-2.363,12.749c8.2.846,8.911.776,8.911,1.907a1.032,1.032,0,0,1-1.131,1.049c-.252,0-7.485-.976-7.977-.976-.2,0-.4.013-.626.013l-1.347,2.579c7.817.854,8.645.653,8.645,1.842a1.032,1.032,0,0,1-1.185,1.031c-.087,0-.147-.005-.163-.005-1.061,0-7.45-.78-7.746-.78a1.656,1.656,0,0,0-1.6.987,12.827,12.827,0,0,1-.814,1.181,21.324,21.324,0,0,0,3.664.246c.611,0,1.2-.009,1.755-.009,1.945,0,3.388.114,3.388,1.145a1.2,1.2,0,0,1-.623.875,2.081,2.081,0,0,1-.868.14c-2.6,0-8.164-.181-8.219-.181-1.362,0-1.524.454-3.176,2.1,1.726.093,3.313.1,4.655.1h.935a10.457,10.457,0,0,1,3.162.226,1.338,1.338,0,0,1,.609,1.034c0,.867-1.057.879-1.844.879h-.066c-3.156,0-9.165-.09-9.22-.09-2.388,0-8.131,6.461-21.155,6.461-5.788,0-10.747-1.273-10.747-3.389a1.583,1.583,0,0,1,1.538-1.571c1.284,0,1.158,1.681,9.342,1.681,23.069,0,31.268-20.686,31.268-30.727,0-13.226-10.137-31.473-31.138-31.473-3.631,0-6.183.765-7.913.765a1.523,1.523,0,0,1-1.705-1.544,1.676,1.676,0,0,1,1.541-1.6Zm-17.709,33.157q0-.1,0-.207c0-18.806,18.408-24.635,21.1-24.635a1.344,1.344,0,0,1,.625.127,1.789,1.789,0,0,1,.927,1.418,1.73,1.73,0,0,1-.959,1.46c-.2.115-18.465,3.513-18.465,21.839a47.179,47.179,0,0,0,.452,4.94c0,1.4-1.51,1.5-1.557,1.5C326.592,249.267,326.552,245.791,326.246,242.827Z" fill="#5fc690"/>
    <path id="路径_99" data-name="路径 99" d="M537.679,753.534c1.055,0,1.406-1.994,1.406-2.564a4.168,4.168,0,0,0-1.426-2.948,4.049,4.049,0,0,0-1.423,3.038C536.236,752.359,536.984,753.534,537.679,753.534Z" transform="translate(-95.731 -253.104)" fill="#5fc690"/>
    <path id="路径_100" data-name="路径 100" d="M517.084,777.34c0-2.537,26.363-16.255,26.363-33.075,0-1.556-.354-9.542-8.781-9.542-5.343,0-11.083,4.709-12.284,5.638a6.649,6.649,0,0,1,2.3,5.152c0,2.51-1.608,5.688-4.575,5.688-3.281,0-4.662-3.906-4.662-5.785,0-2.109,1.094-3.451,1.987-4.766a30.831,30.831,0,0,0-12.86-3.315c-9.416,0-10.264,6.257-10.264,9.131,0,10.354,10.573,24.234,21.422,32.443.431-.286.928-.62,1.482-1A1.617,1.617,0,0,1,517.084,777.34Z" transform="translate(-78.158 -247.53)" fill="#5fc690"/>
    <g id="_4sJuQC.tif" data-name="4sJuQC.tif" transform="translate(317.867 146.304)">
      <path id="路径_101" data-name="路径 101" d="M689.965,454.521c-.685,0-1.312,0-1.914,0h-.6c-1.5,0-2.683-.08-2.683-1.47,0-1.007.564-1.505,2.53-1.505.749,0,1.493.1,2.2.156l.278-10.481-39.058-.814v11.01c.339,0,.679,0,1.021,0,.072,0,.177,0,.3,0,.676,0,1.949.105,1.949,1.455,0,1.7-2.045,1.534-3.658,1.67-5.9,34.849-21.712,51.586-21.712,77.805,0,2.715,14.161,21.482,14.161,35.849,0,5.253-2.191,10.245-5.813,10.245-11.237,0-10.636-42.985-12.943-46.318-11.761-16.992-22.828-19.778-42.085-26.96C564.08,525.371,536.516,532.6,516.76,532.6c-40.882,0-58.447-23.937-59.746-24.6-13.218,6.894-54.656,23.993-54.656,29.015,0,.457,2.643,11.45,2.643,19.722,0,13.47-7.009,15.082-10.1,15.082-3.767,0-7.522-3.751-7.522-11.3,0-12.118,11.2-25.223,11.2-25.331,0-3.326-13.713-32.308-13.713-62.541,0-.233,0-.491,0-.816-2.521-.327-4.281-.318-4.281-1.783,0-1.489,1.8-1.491,1.876-1.491.641,0,.883.168,1.733.168.221,0,.458-.007.736-.007l2.114-17.657c-6.405-1.086-32.8-4.263-32.851-4.269-.866,12.9-.215,7.588-2.5,20.383.174,0,.378,0,.593,0,.829,0,.983-.08,1.446-.08.434,0,1.725.218,1.725,1.512,0,1.72-1.9,1.434-4.734,1.692-.028.055-22.439,53.554-22.439,87.7,0,46.544,28.407,65.579,28.407,66.957a1.71,1.71,0,0,1-1.638,1.582c-1.755,0-29.931-21.371-29.931-68.765,0-18.2,3.158-35.153,16.011-69.675,15.914-42.744,6.05-42.138,12.967-44.165-3.193-6.321-10.7-18.7-10.7-30.572,0-5.313,1.565-8.366,2.8-10.093.691-.967.021-4.479,3.579-10.529.68-1.156,1.325-3.6,4.056-3.6,14.23,0,22.089,33.182,36.556,33.182,7.84,0,12.961-9.6,18.261-9.6,3.408,0,4.15,3.617,4.15,4.833a3.176,3.176,0,0,1,.029.341c0,6.2-18.071,16.19-25.624,30.115,1.7.672,2.987.973,2.987,2.536,0,2.583-2.193,14.561-2.193,25.343,0,21.4,12.662,55.345,13.375,57.133a2.221,2.221,0,0,0,.486-.221c17.72-14.544,63.557-27.237,73.343-41.673a8.024,8.024,0,0,0-.909-.116c-.1,0-47.574.728-47.638.728-1.826,0-2.494-.558-2.746-2.432a358.965,358.965,0,0,1-3.494-45.716c0-.568,0-.888,0-.943,0-70.974,25.249-134.034,82.548-134.034,38.734,0,81.952,31.354,81.952,74.6,0,8.521-1.868,13.191-1.868,14.877,0,1.56,5.1,16.191,5.1,25.449a11.3,11.3,0,0,1-7.17,10.607c-2.888,53.746-2.36,57.217-3.939,57.217-.234,0-.514-.076-.859-.076-1.736,0-13.912-.1-14.7-.1h-.916c4.243,12.929,41.142,6.657,65.21,37.891,6.611-41.257,21.955-54.616,21.955-84.2,0-3.316-.187-5.037-.187-6.005,0-.443.015-.9.015-1.375a8.37,8.37,0,0,1,2.352-.294c.977,0,1.935.1,2.88.1.285,0,.569-.009.852-.034a2.183,2.183,0,0,0,.043-.216.1.1,0,0,0-.01-.048c-10.343-19.449-21.545-25.618-21.545-32.21,0-1.822,1.431-4.792,4.162-4.792,6.083,0,9.65,11.868,18.857,11.868,12.946,0,24.594-28.691,38.119-28.691a3.618,3.618,0,0,1,3.733,2.3c2.453,5.948,2.643,8.116,2.643,9.7,0,.289-.006.559-.006.828,0,3.774,2.084,3.61,2.084,9.548,0,12.632-10.636,26.333-14.773,32.374,2.943.157,2.87.16,3.441.16h.138c.069,0,.179,0,.316,0,.737,0,2.251.134,2.251,1.85a50.677,50.677,0,0,0-.482,6.31c0,29.7,12.457,51.946,12.457,80.4,0,69.814-28.554,96.236-29.127,96.236a1.575,1.575,0,0,1-1.543-1.534c0-3.958,27.655-24,27.655-92.716C702.052,499.82,692.783,487.618,689.965,454.521ZM516.4,529.415c5.053,0,38.584-.167,62.172-25.246-18.969-6.631-24.623-3.912-24.623-39.023,0-13.68,1.767-21.8,3.153-30.172a2.715,2.715,0,0,1,2.482-2.337,54.531,54.531,0,0,1,7.237-.593c1.464,0,2.525.067,4.482.067a38.024,38.024,0,0,0,6.911-.525c4.282-.788,6.827-4.524,6.827-6.726,0-8.448-8.151-53.087-38.657-68.229-5.85,20.533-23.539,18.173-33.368,22.31-13.019,5.479-14.536,32.039-31.284,32.039a1.788,1.788,0,0,1-1.953-2.029,68.68,68.68,0,0,0,.509-10.2c0-13.1-3.557-26.592-11.487-26.592-10.873,0-10.929,24.745-10.929,26.272,0,22.971,1.847,23.767,6.053,25.3.319-3.769.164-5.454,1.893-5.454,1.334,0,1.616,1.379,1.616,1.732,0,1.073-.256,2.253-.256,3.588,0,.372.012.749.012,1.139a34.849,34.849,0,0,0,6.5.639,50.3,50.3,0,0,0,5.06-.373c1.175,0,1.69.563,1.69,1.947,0,9.609.03,17.844.03,24.928,0,46.237-1.265,43.479-20.3,54.394.326,1.429,19.362,23.146,56.051,23.146Zm166.7-91.506c7.379-10.621,14.709-19.905,15.552-32.843a1.208,1.208,0,0,0-.493.7c-2.981,9.8-10.325,17.954-12.078,17.954a1.491,1.491,0,0,1-1.455-1.427c0-1.654,11.986-11.292,11.986-26.05a21.575,21.575,0,0,0-.271-3.163c-.036.055-12.343,22.16-15.819,22.16a1.509,1.509,0,0,1-1.495-1.492c0-1.487,15.239-17.979,15.239-26.065,0-.854-.164-1.332-.916-1.332-11.911,0-22.971,28.691-38.273,28.691-10.407,0-15.156-12.06-18.448-12.06-1.082,0-1.352,1.149-1.352,1.793,0,2.068,7.962,12.12,13.254,17.552,5.593,5.741,6.472,15.134,11.559,15.134h.339C663.757,437.46,663.088,437.5,683.1,437.909ZM346.73,410.534c-.04.646-.14,1.3-.14,1.94,0,11.916,5.991,21.348,10.845,30.868a1.476,1.476,0,0,0,1.3.884c.055.006,22.34,2.812,23.162,2.812,4.06,0,6.608-8.974,12.671-13.81,3.8-3.032,15.106-13.2,15.106-15.916,0-.483-.349-1.634-1.273-1.634-3.253,0-8.672,9.865-18.234,9.865-15.795,0-25.29-33.214-36.074-33.214-.406,0-.981.079-.981,2.011,0,8.193,12.047,25.71,12.047,26.727a1.559,1.559,0,0,1-1.541,1.515c-1.082,0-3.7-1.961-13.05-23.6-.844.74-.927,5.422-.927,5.647,0,14.746,8.906,22.087,8.906,24.276a1.473,1.473,0,0,1-1.447,1.4C355.871,430.308,351.425,427.094,346.73,410.534ZM399.7,539.6l-.3-.069c-7.455,8.148-9.393,21.225-9.393,22.581,0,4.281,2.565,6.418,5.478,6.418,3.07,0,6.353-2.914,6.353-11.429,0-6.276-2.127-17.446-2.136-17.5Zm229.016.329a2.555,2.555,0,0,0-.106.438c0,11.783,4.665,34.9,8.359,34.9.976,0,2.645-3.01,2.645-6.983,0-10.007-9.645-26.95-10.9-28.352Z" transform="translate(-325.119 -215.249)"/>
      <path id="路径_102" data-name="路径 102" d="M520.1,738.08a6.649,6.649,0,0,1,2.3,5.152c0,2.51-1.608,5.688-4.575,5.688-3.281,0-4.662-3.906-4.662-5.785,0-2.109,1.094-3.451,1.987-4.766a30.83,30.83,0,0,0-12.86-3.316c-9.416,0-10.264,6.257-10.264,9.131,0,4.561,2.153,11.14,7.615,18.382,16.7,22.143,33.324,22.127,33.324,25.066v0a1.495,1.495,0,0,1-1.58,1.55c-8.291,0-42.521-22.441-42.521-44.952,0-.034,0-.13,0-.276,0-1.868.475-12.1,13.5-12.1,7.493,0,13.916,3.891,15.2,3.891s7.075-6.464,14.952-6.464h.038c.837,0,11.771.125,11.771,12.859,0,17.554-27.6,34.451-28.015,34.451a1.53,1.53,0,0,1-1.508-1.532c0-2.537,26.363-16.255,26.363-33.075,0-1.556-.354-9.542-8.781-9.542C527.039,732.443,521.3,737.152,520.1,738.08Zm-.869,5.036a4.168,4.168,0,0,0-1.426-2.948,4.049,4.049,0,0,0-1.423,3.038c0,1.3.748,2.475,1.443,2.475,1.055,0,1.406-1.994,1.406-2.564Z" transform="translate(-393.742 -391.555)"/>
      <path id="路径_103" data-name="路径 103" d="M637.22,163.181a2.558,2.558,0,0,0,2.574,2.179c10.529,1.115,10.731,1.467,10.731,2.245,0,.031,0,.063,0,.1a1,1,0,0,1-1.15,1.04c-.631,0-8.763-1.228-9.28-1.228-.153,0-.3.012-.41.012l2.845,9.167c9.506,1.5,10.589,1.279,10.589,2.507,0,.464-.264,1.039-1.192,1.039-.83,0-6.909-1.131-9.093-1.275-.515,10.011.06,5.893-2.211,15.8,6.154.912,8.65.313,8.65,2.092,0,.658-.769.849-1.107.849-.433,0-4.817-.671-8.6-1l-1.342,2.643c8,.829,8.6.647,8.6,1.836,0,.91-.783,1.045-1.237,1.045-.338,0-7.792-.794-8-.794a1.326,1.326,0,0,0-1.275.749c-.251.447-.581.849-.978,1.419a34.365,34.365,0,0,0,4.413.24c.5,0,.972,0,1.4,0,1.893,0,3.017.092,3.017,1.082,0,1.028-.933,1.063-1.368,1.063h-.085c-1.272,0-8.2-.2-8.256-.2a2.3,2.3,0,0,0-1.93.829,8.307,8.307,0,0,1-1.2.984l.158.28a19.431,19.431,0,0,0,2.773.165c1.181,0,2.349-.057,3.357-.057,1.773,0,3.054.176,3.054,1.144,0,.686-.543,1.021-1.723,1.021-2.066,0-9.45-.065-9.5-.065-2.438,0-7.942,6.426-21.243,6.426-6.78,0-10.625-1.638-10.625-3.36a1.606,1.606,0,0,1,1.547-1.583c.975,0,2.8,1.824,8.4,1.824,22.789,0,32.078-18.65,32.078-31.032a31.143,31.143,0,0,0-31.369-31.29c-2.529,0-6.063.726-7.614.726a1.487,1.487,0,0,1-1.613-1.565,1.45,1.45,0,0,1,1.063-1.413,38.408,38.408,0,0,1,8.343-.919c18.6,0,24.989,12.64,28.2,13.06,12.259,1.6,12.3,1.533,12.3,2.679h0a.954.954,0,0,1-1.04.973C647.32,164.61,642.718,163.943,637.22,163.181Z" transform="translate(-439.302 -147.896)"/>
      <path id="路径_104" data-name="路径 104" d="M404.583,270.985a2.619,2.619,0,0,0,2.522,2.142c10.666,1.111,10.813,1.505,10.813,2.342,0,1.038-1,1.038-1.258,1.038h0c-.762,0-7.443-1.034-9.715-1.268a7.438,7.438,0,0,0,.27.921c3.056,6.775,1.49,8.2,3.439,8.464,9.452,1.283,9.868,1.378,9.868,2.338,0,.5-.237,1.041-1.227,1.041-.8,0-6.138-.954-9.295-1.323q.12,1.564.121,3.105a34.626,34.626,0,0,1-2.363,12.749c8.2.846,8.911.776,8.911,1.907a1.032,1.032,0,0,1-1.131,1.049c-.252,0-7.485-.976-7.977-.976-.2,0-.4.013-.626.013l-1.347,2.579c7.817.854,8.645.653,8.645,1.842a1.031,1.031,0,0,1-1.185,1.031c-.087,0-.147-.005-.163-.005-1.06,0-7.45-.78-7.746-.78a1.656,1.656,0,0,0-1.6.987,12.839,12.839,0,0,1-.814,1.181c3.913.695,8.807-.517,8.807,1.382a1.2,1.2,0,0,1-.623.875,2.081,2.081,0,0,1-.868.14c-2.6,0-8.164-.181-8.219-.181-1.362,0-1.524.454-3.176,2.1,1.725.093,3.312.1,4.654.1h.938a10.446,10.446,0,0,1,3.16.226,1.338,1.338,0,0,1,.609,1.034c0,.867-1.057.879-1.844.879H406.1c-3.156,0-9.165-.09-9.22-.09-2.388,0-8.131,6.461-21.155,6.461-5.788,0-10.747-1.273-10.747-3.389a1.583,1.583,0,0,1,1.538-1.571c1.284,0,1.158,1.682,9.342,1.682,23.069,0,31.268-20.686,31.268-30.727,0-13.226-10.137-31.473-31.138-31.473-3.631,0-6.183.765-7.913.765a1.523,1.523,0,0,1-1.705-1.544,1.676,1.676,0,0,1,1.541-1.6,42.412,42.412,0,0,1,7.772-.747c18.585,0,25.344,12.67,28.147,13.022,12.421,1.557,12.432,1.6,12.432,2.845,0,.772-.828.814-1.064.814h-.057C413.769,272.372,408.466,271.409,404.583,270.985Z" transform="translate(-341.825 -193.074)"/>
      <path id="路径_105" data-name="路径 105" d="M877.9,265.586c-.212,0-.43.015-.656.015a2.536,2.536,0,0,0,2.508,2.048c10.705,1.213,10.761,1.427,10.761,2.309v.028c0,.479-.219,1.046-1.172,1.046-.735,0-8.851-1.233-9.3-1.233-.132,0-.257.01-.362.01l2.863,9.165c8.974,1.492,10.583,1.229,10.583,2.5,0,.24-.048,1.051-1.2,1.051-.867,0-6-.984-9.328-1.307q.127,1.593.128,3.16a34.528,34.528,0,0,1-2.361,12.69c7.524.739,8.949.709,8.949,1.9,0,.98-1.022,1.02-1.266,1.02-.654,0-.961-.214-8.467-1l-1.38,2.646c7.69.817,8.637.648,8.637,1.823,0,.563-.335,1.062-1.222,1.062-.375,0-7.85-.794-8.021-.794a1.365,1.365,0,0,0-1.3.78c-.252.443-.59.838-.984,1.385a27.828,27.828,0,0,0,4.052.247c.64,0,1.238-.01,1.779-.01,1.838,0,3.027.113,3.027,1.107s-.965,1.041-1.337,1.041h-.076c-1.6,0-8.307-.187-8.362-.187a2.219,2.219,0,0,0-1.854.813,12.723,12.723,0,0,1-1.422,1.2,22.627,22.627,0,0,0,3.513.232c1.141,0,2.22-.046,3.14-.046,1.715,0,2.88.161,2.88,1.087,0,1.034-.876,1.069-1.624,1.069h-.162c-2.443,0-9.363-.069-9.418-.069-2.452,0-7.956,6.436-21.229,6.436-6.721,0-10.643-1.622-10.643-3.368a1.59,1.59,0,0,1,1.557-1.575c.956,0,2.82,1.834,8.387,1.834,25.825,0,32.071-22.458,32.071-31.047a31.139,31.139,0,0,0-31.339-31.283c-2.489,0-6.154.723-7.64.723a1.516,1.516,0,0,1-1.637-1.535,1.629,1.629,0,0,1,1.19-1.5,38.181,38.181,0,0,1,8.157-.846c18.514,0,25.2,12.648,28.261,13.039,12.07,1.542,12.324,1.572,12.324,2.639a.99.99,0,0,1-1.1,1.015C887.015,266.908,878.41,265.586,877.9,265.586Z" transform="translate(-539.891 -190.778)"/>
      <path id="路径_106" data-name="路径 106" d="M396.851,295.943a21.974,21.974,0,0,0-19.238-21.8c-2.234-.271-3.407.2-3.407-1.638a1.652,1.652,0,0,1,1.768-1.7c8.668,0,24,7.7,24,25.448,0,11.024-8.98,24.779-25.15,24.779-3.794,0-11.146-1.4-11.146-3.5a1.406,1.406,0,0,1,1.591-1.459c1.77,0,4.024,1.81,9.621,1.81C380.368,317.881,395.295,314.909,396.851,295.943Z" transform="translate(-341.277 -199.406)"/>
      <path id="路径_107" data-name="路径 107" d="M632.593,188.271c0,11.815-9.511,25.018-25.11,25.018-4.239,0-11.211-1.528-11.211-3.618a1.324,1.324,0,0,1,1.464-1.306c2.116,0,4.135,1.781,9.7,1.781a21.958,21.958,0,0,0,3.305-43.673c-2.551-.375-3.9.194-3.9-1.66a1.574,1.574,0,0,1,1.339-1.719C615.595,163.093,632.593,169.377,632.593,188.271Z" transform="translate(-438.759 -154.265)"/>
      <path id="路径_108" data-name="路径 108" d="M847.881,315.6c-4.128-.043-11.6-1.361-11.6-3.572a1.382,1.382,0,0,1,1.525-1.414c1.885,0,4.151,1.806,9.665,1.806a21.96,21.96,0,0,0,3.075-43.705c-2.411-.336-3.712.3-3.712-1.7a1.614,1.614,0,0,1,1.727-1.661c8.369,0,24.036,7.413,24.036,25.213C872.594,299.945,866.547,314.034,847.881,315.6Z" transform="translate(-539.345 -197.122)"/>
      <path id="路径_109" data-name="路径 109" d="M388.955,314.977c.038.552.14,1.761.14,2.423,0,1.924-1.073,2.288-1.627,2.288h0c-.086,0-1.585,0-1.585-1.912,0-.056.005-.377.005-1.087,0-.562,0-1.131,0-1.716-2.26-.908-3.893-2.866-3.893-3.979a1.623,1.623,0,0,1,1.588-1.618c1.743,0,1.893,2.33,3.693,2.33.249,0,3.335-.652,3.335-3.243,0-3.475-8.379-2.754-8.379-8.238a5.147,5.147,0,0,1,3.089-4.987c0-.454,0-.923,0-1.4,0-1.9-.049-1.443-.049-1.854s.279-1.707,1.51-1.707a1.627,1.627,0,0,1,1.5,1.287,19.091,19.091,0,0,1,.23,3.176c.386.065,4.032.387,4.032,2.207a1.5,1.5,0,0,1-1.426,1.493,15.744,15.744,0,0,0-2.641-.452c-2.567,0-2.89,1.073-2.89,2.12a1.237,1.237,0,0,0,.758,1.2c1.579.753,7.656,2.3,7.656,7.4C393.994,312.638,390.466,314.068,388.955,314.977Z" transform="translate(-348.954 -207.569)"/>
      <path id="路径_110" data-name="路径 110" d="M812.173,290.656q0-.112,0-.224c0-18.715,18.335-24.6,21.01-24.6.563,0,1.652.277,1.652,1.361a2.005,2.005,0,0,1-1.206,1.755c-.464.184-18.234,3.7-18.234,21.749a38.116,38.116,0,0,0,.472,4.827,1.52,1.52,0,0,1-1.534,1.551C812.352,297.073,812.475,293.788,812.173,290.656Z" transform="translate(-529.243 -197.322)"/>
      <path id="路径_111" data-name="路径 111" d="M339.543,296.133q0-.1,0-.207c0-18.806,18.408-24.635,21.1-24.635a1.345,1.345,0,0,1,.625.127,1.788,1.788,0,0,1,.927,1.418,1.73,1.73,0,0,1-.959,1.46c-.2.115-18.465,3.513-18.465,21.839a47.184,47.184,0,0,0,.452,4.94c0,1.4-1.51,1.5-1.556,1.5C339.889,302.572,339.849,299.1,339.543,296.133Z" transform="translate(-331.164 -199.61)"/>
      <path id="路径_112" data-name="路径 112" d="M572.08,188.31c.069-20.466,19.894-24.755,21.065-24.755.574,0,1.641.249,1.641,1.358a1.994,1.994,0,0,1-1.2,1.755c-.463.182-18.23,3.7-18.23,21.751a38.793,38.793,0,0,0,.465,4.736,1.483,1.483,0,0,1-1.517,1.629C572.472,194.786,572.6,192.557,572.08,188.31Z" transform="translate(-428.62 -154.459)"/>
      <path id="路径_113" data-name="路径 113" d="M623.739,189.794c.9.379,2.473.726,2.473,2.2a1.455,1.455,0,0,1-1.452,1.476c-.695,0-1.156-.454-1.714-.454-.32,0-.893.268-.893.586,0,1.895,5.244,3.23,5.244,7.811a5.5,5.5,0,0,1-2.531,4.792,1.249,1.249,0,0,0-.732,1.159c0,.234.139,1.107.139,2.184,0,1.557-1.159,1.643-1.478,1.643-1.732,0-1.758-1.8-1.758-3.4,0-.264.007-.528.007-.79-2.088-1.149-3.582-1.7-3.582-2.98a1.643,1.643,0,0,1,1.632-1.631c1.165,0,2.11,1.217,3.25,1.217,1.53,0,1.7-2.046,1.7-2.271,0-2.191-5.321-4.276-5.321-7.677,0-2.134,1.852-2.263,1.852-4.254,0-.281-.032-.442-.032-1.052,0-.059,0-.134,0-.22,0-.726.079-2.291,1.562-2.291C623.778,185.84,623.637,187.889,623.739,189.794Z" transform="translate(-447.639 -163.798)"/>
      <path id="路径_114" data-name="路径 114" d="M365.73,313.774c0,.309,0,.642,0,1.042.522,0,.992-.01,1.438-.01,1.526,0,3.045.107,3.045,1.68,0,1.663-1.8,1.673-2.074,1.673h-.009c-8.413,0-9.642-.019-9.642-1.763,0-1.533,1.525-1.65,2.178-1.65.117,0,.206,0,.253,0,.431,0,.877.014,1.356.014v-10.69c-1.824,1.352-2,1.624-2.68,1.624a1.68,1.68,0,0,1-1.647-1.631,2.066,2.066,0,0,1,.871-1.561c4.258-3.816,4.449-4.059,5.248-4.059.282,0,1.687.122,1.687,2.116C365.755,300.617,365.73,308.031,365.73,313.774Z" transform="translate(-338.878 -210.991)"/>
      <path id="路径_115" data-name="路径 115" d="M864.021,291.822c.487.159,3.281.658,3.281,2.959a1.53,1.53,0,0,1-1.487,1.553c-.8,0-1.33-.8-1.7-1.256-.12.045-1.473.327-1.473,1.245,0,1.616,5.19,1.99,5.19,6.162,0,2.5-2.158,3.651-2.869,4.108a21.9,21.9,0,0,1,.344,2.648c0,1.195-.458,1.893-1.462,1.893-2.611,0-.971-3.763-2.573-4.556-.042-.021-2.243-1.135-2.243-2.554a1.659,1.659,0,0,1,1.592-1.615c1.145,0,1.485,1.093,2.472,1.093.5,0,1.3-.371,1.3-1.018,0-1.958-5.046-1.62-5.046-6.173,0-2.615,1.572-2.463,1.572-3.724,0-.293-.2-1.5-.2-2.606,0-1.356.826-1.747,1.508-1.747C863.885,288.234,863.8,290.348,864.021,291.822Z" transform="translate(-548.88 -206.712)"/>
      <path id="路径_116" data-name="路径 116" d="M836.764,298.417l.264,2.109c.871-.079,1.634-.208,2.395-.208a4.158,4.158,0,0,1,4.333,4.184c0,4.852-4.663,6.341-6.6,6.341a1.569,1.569,0,0,1-1.64-1.568c0-2.594,4.855-1.173,4.855-4.676,0-.586-.367-.917-1.075-.917-1.267,0-2.485.627-3.5.627-1.282,0-2.139-.284-2.139-6.946,0-2.276,1.321-2.292,3.934-2.292h.113c.608,0,1.215.009,1.823.016a1.717,1.717,0,0,1,1.831,1.638c0,1.439-1.466,1.518-1.95,1.518h-.13c-.249,0-.5-.008-.748-.008C836.792,298.234,837.126,298.241,836.764,298.417Z" transform="translate(-538.246 -209.577)"/>
      <path id="路径_117" data-name="路径 117" d="M603.859,199.541c.63.431,3.109,1.211,3.109,4.346,0,3.353-3.277,5.956-6.8,5.956H600c-.626,0-2.424-.089-2.424-1.8a1.6,1.6,0,0,1,1.712-1.572c.092,0,.217.008.471.008,3,0,3.833-1.962,3.833-2.631,0-.6-.454-.972-1.218-.972-.455,0-.705.137-1.132.137a1.732,1.732,0,0,1-1.888-1.7c0-.721.292-1.078,1.733-3.761a15.275,15.275,0,0,1-2.151.283,1.471,1.471,0,0,1-1.584-1.518v-.011a1.389,1.389,0,0,1,.644-1.174c.921-.638,4.767-.971,5.252-.971a1.7,1.7,0,0,1,1.916,1.726C605.166,196.715,604.736,197.467,603.859,199.541Z" transform="translate(-439.213 -167.286)"/>
      <path id="路径_118" data-name="路径 118" d="M354.878,340.059c0,.184-.047,1.48-1.906,1.48h-.038c-3.475-1.633-8.432-7.825-8.432-9.713a1.483,1.483,0,0,1,1.431-1.619,1.793,1.793,0,0,1,1.541,1.019c3.627,6.77,7.4,6.984,7.4,8.813Z" transform="translate(-333.24 -224.303)"/>
      <path id="路径_119" data-name="路径 119" d="M585.626,233.8c-3.441-1.58-8.444-7.653-8.444-9.937a1.372,1.372,0,0,1,1.363-1.395,2.074,2.074,0,0,1,1.758,1.3c3.441,6.364,7.211,6.707,7.211,8.56C587.513,233.293,586.6,233.791,585.626,233.8Z" transform="translate(-430.758 -179.15)"/>
      <path id="路径_120" data-name="路径 120" d="M818.547,324.773h.013a1.967,1.967,0,0,1,1.782,1.286c3.25,6.159,7.224,6.751,7.224,8.6a1.618,1.618,0,0,1-1.666,1.452c-1.085,0-8.617-6.525-8.617-9.937a1.232,1.232,0,0,1,1.264-1.4Z" transform="translate(-531.38 -222.025)"/>
      <path id="路径_121" data-name="路径 121" d="M660.212,498.541c0-4.71,1.406-8.478,4.041-8.478a2.567,2.567,0,0,1,2.165,1.365c1.674,2.735,5.273,6.013,8.99,6.013.275,0,.37-.013.489-.013a1.063,1.063,0,0,1,1.183,1.121c0,1.215-2.7,11.053-9.461,11.053C663.86,509.6,660.212,505.822,660.212,498.541Z" transform="translate(-465.556 -291.298)"/>
      <path id="路径_122" data-name="路径 122" d="M568.464,449.409c0-1.3.012-2.552.012-3.779,0-3.348-.282-12.207-.282-12.987a1.636,1.636,0,0,1,1.617-1.859,1.487,1.487,0,0,1,1.38,1.084c.254.883.573,19.3.573,19.36a2.052,2.052,0,0,1-2.1,2.127c-.774,0-1.174-.264-3.362-1.371a2.425,2.425,0,0,0-.343,1.3c0,.787,1.424,12.436,1.424,12.669a1.359,1.359,0,0,1-1.4,1.551c-.68,0-1.208-.517-1.431-1.509a113.594,113.594,0,0,1-1.71-12.6v-.071c0-.745.056-4.559,3.142-4.559a6.932,6.932,0,0,1,2.48.635Z" transform="translate(-424.749 -266.455)"/>
      <path id="路径_123" data-name="路径 123" d="M713.452,428.291c6.3,1.784,9.916,5.817,9.916,7.145a1.367,1.367,0,0,1-1.32,1.255c-.6,0-1.02-.477-1.534-1.04-5.42-5.937-9.013-3.41-9.013-5.891C711.5,428.495,712.841,428.434,713.452,428.291Z" transform="translate(-487.052 -265.409)"/>
      <path id="路径_124" data-name="路径 124" d="M664.741,529.583c-6.811-.241-7.81-5.307-7.81-5.541a.926.926,0,0,1,.956-.979c1.587,0,1,4.476,6.52,4.476a17.141,17.141,0,0,0,2.578-.309.971.971,0,0,1,1.012.99C668,529.219,666.715,529.224,664.741,529.583Z" transform="translate(-464.181 -305.129)"/>
      <path id="路径_125" data-name="路径 125" d="M704.393,460.539q0,.041,0,.082c-.464,3.678-.34,5.325-2.029,5.325a1.558,1.558,0,0,1-1.575-1.633q0-.081.007-.165c.349-4.381.535-5.591,2.033-5.591C704.126,458.556,704.393,459.671,704.393,460.539Z" transform="translate(-482.561 -278.094)"/>
      <path id="路径_126" data-name="路径 126" d="M676.581,461.042c0,.428.014.858.014,1.286,0,.046,0,.14,0,.266,0,.617-.108,1.983-1.377,1.983-1.4,0-1.474-1.422-1.474-4.349q0-.492,0-1.041c0-.8.123-1.909,1.378-1.909,1.321,0,1.4,1.388,1.4,2.074,0,.1,0,.185,0,.248,0,.48-.02.962-.02,1.442Z" transform="translate(-471.23 -277.558)"/>
      <path id="路径_127" data-name="路径 127" d="M711.678,475.19h-.02a1.213,1.213,0,0,1-1.276-1.147c0-1.187,3.013-3.206,3.828-3.206a1.293,1.293,0,0,1,1.2,1.237c0,.819-.79,1.278-3.218,2.922A1.962,1.962,0,0,1,711.678,475.19Z" transform="translate(-486.583 -283.241)"/>
      <path id="路径_128" data-name="路径 128" d="M658.485,469.041a1.378,1.378,0,0,1,1.387-1.305h.036a5.027,5.027,0,0,1,2.892,3.18,1.492,1.492,0,0,1-1.41,1.273.941.941,0,0,1-.654-.253C658.676,470.023,658.485,469.407,658.485,469.041Z" transform="translate(-464.833 -281.941)"/>
    </g>
  </g>
</svg>
