<svg xmlns="http://www.w3.org/2000/svg" width="390" height="332.389" viewBox="0 0 390 332.389">
  <g id="新技能" transform="translate(-283.766 -201.408)" opacity="0.8">
    <path id="路径_129" data-name="路径 129" d="M382.037,650.5c2.729,7.011,5.148,12.792,6.047,18.076a132.479,132.479,0,0,1,24.8-19.83c-.548-.041-1.081-.058-1.6-.058C410.635,648.69,397.093,649.541,382.037,650.5Z" transform="translate(-45.001 -204.825)" fill="#5fc690"/>
    <path id="路径_130" data-name="路径 130" d="M698.316,334.275c-.414-7.5-.742-12.671-3.461-30.547-.345,0-.65-.009-.937-.009-.812,0-4.361.293-9.347.293-19.506,0-21.738-4.184-24.2-4.184a113.18,113.18,0,0,1-12.684.773c-13.937,0-15.881-.5-15.881-2.847a2.123,2.123,0,0,1,2.3-2.2,5.28,5.28,0,0,1,.709.04c.138-.475.574-1.131,1.951-1.131.718,0,2.533.353,7.134.353a102.185,102.185,0,0,0,12.28-.6,6.936,6.936,0,0,1-.2-1.648c0-5.981,7.911-14.472,17.8-14.472,5.088,0,10.323,3.03,10.323,7.774,0,1.231-.324,6.247-10.893,10.708a58.95,58.95,0,0,0,8.79.609,93.093,93.093,0,0,0,11.438-.842c-10.5-50.179-68.668-44.134-97.043-72.628-13.165-13.22-22.516-22.308-83.658-22.308-86.377,0-103.92,30.431-115.262,67.171q4.362-.307,8.865-.312c42.805,0,69.259,18.662,69.259,35.868,0,16.6-21.346,26.5-32.855,29.249a5.536,5.536,0,0,0-.1,1.062,9.4,9.4,0,0,0,.292,2.126c1.487,6.428,4.3,5.773,4.3,7.734a3.058,3.058,0,0,1-.692,1.84,1.073,1.073,0,0,1,.448.931c0,1.143-1.429,1.324-1.888,1.324-1.979,0-9.089-.937-13.829-9.62a134.853,134.853,0,0,1-18.7,1.326,122.966,122.966,0,0,1-39.039-6.3c-.993,2.737-11.127,32.189-11.127,58.883a133.217,133.217,0,0,0,9.334,49.582c9.291-.427,20.224-.941,33.113-1.762,13.714-.873,27.836-15.272,66.73-15.272a120.87,120.87,0,0,1,24.771,2.47c-7.743-16.809-12.452-19.988-18.589-54.245-5.966-2.865-8.237-3.495-8.237-17.755a80.92,80.92,0,0,1,2.924-20.516,27.63,27.63,0,0,1-3.851.616,1.267,1.267,0,0,1-1.347-.755,3.824,3.824,0,0,1-.3-1.319c0-.04,0-.085,0-.14,0-.494.361-1.841,7.495-8,5.541-4.788,12.5-28.467,36.452-36.258,1.052-.342,11.323-14.874,43.572-14.874l1.23,0c9.469,0,27.443,1.1,79.056,51.964,49.552,48.837,53.982,46.827,53.982,48.839,0,2.33-40.249,43.987-53.1,58.492,18,12.465,29.781,28.74,37.491,44.353,23.96-2.875,36.654-24.764,36.654-47.527C709.777,412.042,701.568,393.2,698.316,334.275Zm-227.8,40.513a1.122,1.122,0,0,1,.861.4,1.2,1.2,0,0,1,1.071-.548c1.267,0,1.424,1.4,1.435,1.822.481,19.611,12.481,39.037,12.481,40.5a1.7,1.7,0,0,1-1.656,1.708.336.336,0,0,1-.048-.008,1.24,1.24,0,0,1-1.207.886c-2.145,0-12.352-18.786-14.585-40.145C469.191,376.6,469.062,374.788,470.514,374.788Zm-38.863,26.6a62.624,62.624,0,0,1-14.1,2.558c-12.856,0-17.762-7.9-20.19-8.088-6.851-.525-17.77-1.6-21.145-1.6-5.1,0-7.054,2.266-8.546,2.266a2.227,2.227,0,0,1-2.141-2.206,2.52,2.52,0,0,1,1.163-1.919c0-.013,0-.024,0-.036a1.359,1.359,0,0,1,.531-1.078c3.313-2.625,6.072-3.825,9.934-3.825,3.63,0,10.58,1.606,17.809,1.606.543,0,1.085-.009,1.628-.019.527-7,7.623-9.779,11.62-9.779,3.135,0,9.167,1.437,9.167,6.922,0,4.408-5.107,8.564-9.982,9.439a28.483,28.483,0,0,0,9.014,1.228c15.68,0,32.062-6.929,34.233-6.929a1.423,1.423,0,0,1,1.485,1.435c0,.006,0,.012,0,.018a2.4,2.4,0,0,1,1.053,1.909c0,2.277-1.411,2.386-21.523,8.1ZM480,246.738c-13.126,0-15.284-4.031-17.934-7.483-6.154.472-19.541-.116-21.8,4.722a2.018,2.018,0,0,1-1.862,1.168,2.261,2.261,0,0,1-.725-.12,2.15,2.15,0,0,1-1.5-2.04,3.9,3.9,0,0,1,.914-2.337c.154-.976,2.488-7.4,14.363-7.4,1.963,0,2.845.092,6.4.092,1.071,0,2.146-.007,3.224-.013,1.332-6.6,9.774-11.773,16.194-11.773s9.405,3.149,9.405,5.828c0,1.242-.761,8.192-16.129,10.885a37.552,37.552,0,0,0,9.425.894c10.022,0,28.1-2.725,29.581-2.725a1.5,1.5,0,0,1,1.5.915,2.235,2.235,0,0,1,1.641,2.144c0,4.455-23.757,7.246-32.7,7.246Z" transform="translate(-36.013 0)" fill="#5fc690"/>
    <g id="AZV7j2.tif" transform="translate(283.766 223.583)">
      <path id="路径_131" data-name="路径 131" d="M599.621,495.455c12.856-14.505,53.1-56.162,53.1-58.492,0-2.012-4.43,0-53.982-48.839-51.613-50.868-69.587-51.964-79.056-51.964l-1.23,0c-32.249,0-42.52,14.532-43.572,14.874-23.952,7.791-30.911,31.471-36.452,36.258-7.133,6.164-7.5,7.51-7.5,8,0,.056,0,.1,0,.14a3.825,3.825,0,0,0,.3,1.319,1.267,1.267,0,0,0,1.347.755,27.634,27.634,0,0,0,3.851-.616,80.92,80.92,0,0,0-2.924,20.517c0,14.26,2.271,14.89,8.237,17.755,6.138,34.257,10.846,37.436,18.59,54.245a120.87,120.87,0,0,0-24.771-2.47c-38.894,0-53.016,14.4-66.73,15.272-80.054,5.1-85.075-1.614-85.075,32.324,0,26.532,8.214,53.949,8.214,57.947,0,.476-.062.563-.062.924a1.983,1.983,0,0,0,2.029,2.094c.082,0,357.62-1.029,357.62-3.775C651.566,591.218,648.485,529.3,599.621,495.455ZM478.466,353.271c10.691,19.278,31.428,29.59,50.864,29.59a60.119,60.119,0,0,0,8.037-.546l-.853,7.427-9.35.382c-1.217-2.569-.79-6.446-22.106-6.446-4.531,0-8.191.526-14.963,1.346-2.143.26-1.95,1.18-2.843,1.456-1.937.6-1.017,2.144-1.509,11.443l-2.62.283c-.406-5.892.029-11.9-6.469-11.9-.2,0-26.788.506-26.839.506-.706,0-.917-.027-1.165-.027-2.083,0-3.925,1.523-5.127,5.5l-2.283.488C442.174,387.823,453.481,360.833,478.466,353.271Zm45.77,40.636c0,.152,0,.3,0,.454a48.034,48.034,0,0,1-1.573,13.4c-.314,1.014-.731,1.369-1.756,1.369-.051,0-23.761-.862-32.148-1.282.12-6.6.238-13.057.358-19.609,3.935-1,13.512-1.42,16.106-1.42a103.113,103.113,0,0,1,16.527,1.7c2.412.569,2.487,3.047,2.487,5.383Zm-44.4,4.207v.08c0,.887-.007,2.418-.454,9.263-.068,1.03.382,3.455-16.24,3.455-2.275,0-3.944-.044-4.888-.044-2.921,0-6.688.267-8.257.267-.77,0-1.573-.061-2.332-.061-.065,0-.129,0-.192,0-.7,0-1.262-.441-1.262-11.139,0-9.209,1.13-9.977,2.6-9.986,3.95-.024,7.848-.149,11.207-.149,1.061,0,2.122.007,3.183.007,0-.032,0-.064,0-.1.574-.011,13.653-.278,14.219-.278a1.808,1.808,0,0,1,2.061,1.831c.185,2.277.357,4.563.357,6.845ZM437.718,392.1c-.1,1.217-.111,1.325-.855,1.325l-.24,0,1.095-1.323Zm9.429,41.237c-9.692-1.774-9.539-5.193-9.57-5.367a59.606,59.606,0,0,1-.913-10.5,75.591,75.591,0,0,1,2.935-20.148c.435-1.587,1.1-1.433,3.516-1.9,0,1.315-.011,2.559-.011,3.775,0,.929,0,1.819,0,2.669,0,7.912.191,12.361,4.123,12.361,1.879,0,6.262-.157,10.529-.157,1.52,0,3.04.011,4.559.011,22.558,0,20.08-3.7,20.484-12.285h2.938c0,.287,0,.566,0,.842,0,.916-.13,4.032-.13,5.188,0,4.9,3.718,2.69,35.052,4.478q.176.01.348.01c5.257,0,5.812-5.77,6.436-19.255,1.9-.062,3.774-.229,5.667-.229a22.916,22.916,0,0,1,3.168.2c0,.366-.017.708-.017,1.038,0,1.986,1.189,2.039,1.435,2.039,3.242,0-.033-11.66,5.913-19.6a6.191,6.191,0,0,1,5.1-2.74c6.646,0,7.4,5.087,7.4,13.236,0,2.119-.941,36.948-6.279,41.7a9.616,9.616,0,0,1-.5-2.368c-.214-.98-.794-1.533-1.539-1.533a1.527,1.527,0,0,0-1.541,1.716c0,.448.049.328.484,4.35a15.072,15.072,0,0,1-7.512,2.207c-.561,0-.8-.036-.985-.036-3.93,0-1.08,56.842-3.466,59.9-10.99,14.066-27.676,16.833-36.617,16.833-20.8,0-34.077-13.643-34.08-18.2,0-4.762-.057-9.524-.057-14.286,0-7.179.035-16.787.035-25.376,0-21.375-.846-15.626-16.9-18.565ZM296.6,592.077c-2.984,0-9.678-37.187-9.678-58.138,0-23,7.689-23.819,8.824-23.9,3.317-.225,69.086-4.47,70.533-4.47.523,0,1.056.017,1.6.058C317.814,537.09,316.7,577.2,316.7,583c0,.271,0,.467,0,.584,0,2.192,1.183,6.124,1.4,8.366C317.824,591.966,318.982,592.077,296.6,592.077Zm131.921-.635H423c0-.31-.016-.6-.016-.88,0-.667.174-1.392.174-3.595,0-14.942-5.7-30.275-14.878-30.275-11.45,0-16.046,22.038-16.046,31.427,0,.939.244,1.764.244,2.647,0,.238-.01.5-.01.819h-5.8a11.7,11.7,0,0,1-.35-2.961c0-1.531.632-9.007.952-10.87.42-2.447,3.613-1.53,6.483-6.613,1.764-3.122,3.554-4.714,3.554-7.216a12.125,12.125,0,0,0-.289-2.32,9.88,9.88,0,0,0,3.459-7.056,4.078,4.078,0,0,0-1.36-3.133,4.806,4.806,0,0,0,.662-2.482,15.812,15.812,0,0,0-.755-3.813c-.589-2.317-2.312-3.426-4.619-4.085,1.218-1.63,8.029-11.711,17.707-11.711,9.867,0,20.49,12.773,20.49,37.655,0,6.318-.895,16.194-4.084,24.461ZM375,546.59c2.182,0,10.119-3.036,14.349-3.036,2.137,0,5.771.5,6.334,1.723a9.222,9.222,0,0,1,.955,3.879,7.165,7.165,0,0,1-.049.836,18.655,18.655,0,0,0-2.821-.215c-6.915,0-11.5,3.6-15.91,3.91-.927.065-1.56.448-1.56,1.375,0,1.46,1.938,1.49,2.3,1.49h.037c2.213,0,9.944-3.668,15.339-3.668.709,0,3.388.384,3.388,1.777a7.706,7.706,0,0,1-1.687,3.99c-.4.453-.732.961-1.137,1.5-12.386,1-11.985,2.989-17.31,3.616-.06.007-1.529.116-1.529,1.377,0,.466.226,1.477,2.087,1.477,3.139,0,7.758-3.211,15.581-3.211.249,0,.5,0,.741,0a2.711,2.711,0,0,1,.049.5c0,1.244-3.519,6.788-5.374,8.265-7.19,5.726-15.466.97-25.693,8.425a14.368,14.368,0,0,1-6.141,2.139c-1.043,0-1.721-.538-3.872-1.84-.025-1.308-.1-2.718-.1-4.146,0-26.748,24.365-50.533,29.749-50.533.289,0,.428.163.428.485,0,3.556-11.159,13.585-11.159,17.261C372,546.387,374.506,546.59,375,546.59Zm89.446,40.734a44.875,44.875,0,0,0-2.44,3.989H446.724c0-2.449.013-4.873.013-7.288,0-11.2-1.04-70.173-35.311-70.173-11.837,0-21.07,7.469-25.621,10.691a3.955,3.955,0,0,0-2.93-1.479c-1.58,0-9.382,1.07-21.164,20.027-.777,1.25-1.5,1.975-2.854,1.975a42.225,42.225,0,0,0-4.38-.342c-10.271,0-19.51,7.3-19.51,9.249a1.656,1.656,0,0,0,1.523,1.609c1.692,0,6.86-7.8,18.319-7.8.476,0,.564.012,1.4.012.534,0,1.064-.005,1.58-.005.043.165.092.267.092.319a57.622,57.622,0,0,0-8.048,28.951c0,5.832.143,6.181,1.2,6.666,3.21,1.474,4.086,2.151,6.007,2.151,1.762,0,3.2-.642,7.205-1.984,0,.753-.027,1.541-.027,2.339a30.338,30.338,0,0,0,.605,5.529l-43.51.206c-.619-2.991-1.533-6.248-1.533-8.721,0-47.41,51.743-78.016,56.7-78.353.053,0,57.838-3.824,57.9-3.824,11.666,0,30.713,79.166,30.713,84.486a2.835,2.835,0,0,1-.654,1.767Zm3.308,3.982c.116-.653,20.528-48.381,81.068-48.381,4.03,0,4.643.24,6.2.25.794.005,21.541,32.308,45.119,32.308,5.544,0,10.706-2.628,10.706-6.968,0-8.687-20.644-23.393-50.84-27.935-2.777-.418-1.926.113-3.4-2.3-5.84-9.554-5.871-17.226-5.871-19.239,0-.246,0-.322,0-.683,0-.615,0-1.183,0-1.7,0-2.739-.113-4.151-1.529-4.151-1.491,0-1.557,1.312-1.557,5.355,0,11.713,3.938,17.9,6.2,21.97-.345.018-.585.048-.809.048-.187,0-1.68-.1-4.039-.1-50.027,0-68.938,27.376-80.956,43.517-6.227-32.276-22.668-85.331-32.749-85.331-.364,0-49.194,3.2-50.151,3.2-.425,0-.894-.013-1.481-.013.466-.246,22.339-11.07,52.074-11.07,13.407,0,23.164,2.2,24.328,2.594,6.024,25.007,31.863,27.317,39.551,27.317,29.6,0,40-22.68,40-26.932,0-1.433-1.068-1.411-1.068-3.148,0-.057,0-.088,0-.107,0-.127.012.248.2-3.36,1.453-.349,4.66-1.682,14.877-1.682,68.592,0,92.238,75.674,94.623,105.722l-180.5.82Zm92.373-47.53c32.335,5.371,47.59,19.522,47.59,24.675,0,2.963-5.294,3.876-7.628,3.876C582.781,572.329,563.485,550.638,560.125,543.777Z" transform="translate(-283.766 -285.291)"/>
      <path id="路径_132" data-name="路径 132" d="M458.8,360.615c0-17.206-26.453-35.868-69.259-35.868-34.265,0-63.8,13.743-63.8,33.355,0,16.741,24.731,35.954,69.118,35.954a134.357,134.357,0,0,0,21.109-1.778c4.31,10.592,12.074,10.841,12.654,10.841,1.464,0,1.817-1.8,1.817-2.334,0-1.961-2.815-1.306-4.3-7.734a9.4,9.4,0,0,1-.292-2.126,5.531,5.531,0,0,1,.1-1.062C437.458,387.113,458.8,377.218,458.8,360.615Zm-33.841,38.063a13.632,13.632,0,0,1-6.217-8.229c-.3-1.159-.786-1.667-1.763-1.667-1.243,0-7.813,2.14-22.367,2.14-32.714,0-65.743-13.692-65.743-32.812,0-17.114,27.418-30.15,62.114-30.15,32.593,0,64.675,14.136,64.675,32.725,0,19.365-31.41,26.122-31.755,26.281-1.007.462-1.2,1.088-1.2,3.3a17.66,17.66,0,0,0,2.253,8.408Z" transform="translate(-302.989 -280.064)"/>
      <path id="路径_133" data-name="路径 133" d="M454.251,541.477c-2.171,0-18.554,6.929-34.233,6.929-10.018,0-13.6-3.288-13.758-4.953.112-.017,12.882-1.116,12.882-6.687,0-3.129-4.329-4.41-6.41-4.41-1.059,0-7.932,1.028-9.82,7.668-.043.15-.117.292-.206.51-1.378.045-2.757.082-4.135.082-7.229,0-14.178-1.606-17.809-1.606-3.862,0-6.621,1.2-9.933,3.825a1.358,1.358,0,0,0-.532,1.078,1.38,1.38,0,0,0,1.311,1.388c1.355,0,3.1-3.17,9.007-3.17,2.877,0,9.355,1.623,18.867,1.623,1.558,0,2.577-.048,2.708-.048.209,0,.42.024.646.035.279.567,1.8,7.849,16.709,7.849,11.965,0,36.19-5.919,36.19-8.677a1.422,1.422,0,0,0-1.485-1.435Zm-41.589-5.943a4.73,4.73,0,0,1,3.28,1.251c-.932,2.489-8.378,3.3-9.649,3.445.473-2.048,3.622-4.7,6.369-4.7Z" transform="translate(-323.391 -375.135)"/>
      <path id="路径_134" data-name="路径 134" d="M572.636,255.167c-1.484,0-19.558,2.725-29.581,2.725-7.84,0-11.524-1.081-12.674-2.716.217-.126,16.7-2.086,16.7-8.649,0-.012,0-.048,0-.1,0-.659-.239-4.107-6.414-4.107-2.844,0-10.073,1.115-14.184,9.732-1.862,0-3.706.022-5.543.022-3.56,0-4.442-.092-6.405-.092-12.323,0-14.373,6.923-14.373,7.491a1.386,1.386,0,0,0,1.363,1.313c1.748,0,1.343-3.017,6.186-4.662a17.835,17.835,0,0,1,5.757-1.022c.051,0,12.873.132,13.337.326,2.035,4.664,8.2,5.622,16.506,5.622,8.22,0,29.45-2.791,29.811-2.887a1.521,1.521,0,0,0-.482-2.994Zm-31.8-9.789c.526,0,3.094.117,3.094,1.182,0,.232-2.294,4.045-13.97,5.337,3.827-5.9,8.968-6.518,10.877-6.518Z" transform="translate(-382.859 -242.317)"/>
      <path id="路径_135" data-name="路径 135" d="M934.959,361.024h-.05c-2.015,0-13.249,2.452-22.843,2.452-9.752,0-14.449-1.952-14.6-2l.068-.295c3.188-1.271,14.206-5.031,14.206-11.047,0-2.769-2.732-3.969-5.48-3.969-6.489,0-15.725,5.267-15.725,11.14a12.725,12.725,0,0,0,.354,2.325c-1.632.461-5.931,1.473-16.92,1.473-4.6,0-6.416-.353-7.134-.353-1.96,0-2.016,1.329-2.016,1.574,0,1.62,1.567,1.294,3.758,1.484a49.268,49.268,0,0,0,7.911.392,69.023,69.023,0,0,0,16.31-1.712c1.176,0,3.681,4.151,18.626,4.151,8.11,0,23.021-2.3,24.11-2.67a1.261,1.261,0,0,0,.956-1.317,1.461,1.461,0,0,0-1.535-1.63Zm-41.292-3.775c0-1.694,4.686-7.933,12.5-7.933.037,0,2.438.021,2.438.943,0,.333-1.7,5.115-14.434,8.579a3,3,0,0,1-.507-1.589Z" transform="translate(-549.851 -289.874)"/>
      <path id="路径_136" data-name="路径 136" d="M562.832,524.207c0-.377-.02-.755-.02-1.132,0-.029,0-.081,0-.15,0-.508.079-1.946,1.407-1.946,1.267,0,1.424,1.4,1.434,1.822.481,19.611,12.481,39.037,12.481,40.5a1.7,1.7,0,0,1-1.656,1.708c-2.175,0-13.665-25.443-13.665-40.341,0-.155,0-.31,0-.465Z" transform="translate(-411.55 -369.926)"/>
      <path id="路径_137" data-name="路径 137" d="M764.337,453.957c.8.123,4.6-.138,4.6,5.521,0,1.942-.15,3.885-.254,5.827a1.822,1.822,0,0,1-1.647,1.891,1.486,1.486,0,0,1-1.512-1.561c0-.051.355-4.871.355-6.552a4.722,4.722,0,0,0-.045-.533c-.135-1.187-.31-1.541-1.109-1.541-.533,0-.961.127-1.563.127a1.975,1.975,0,0,1-2.229-1.975,4.865,4.865,0,0,1,.068-.76c3.276-20.539,2.966-20.871,4.74-20.871a1.578,1.578,0,0,1,1.536,1.7C767.274,436.14,764.625,451.112,764.337,453.957Z" transform="translate(-502.275 -329.88)"/>
      <path id="路径_138" data-name="路径 138" d="M643.994,491.3c-.574-.018-5.734-.442-5.734-2.716a1.47,1.47,0,0,1,1.49-1.493c1,0,1.918,1.067,4.3,1.067a8.32,8.32,0,0,0,3.9-1.05c5.875-3.1,5.463-8.254,7.747-8.254a1.494,1.494,0,0,1,1.494,1.539C657.187,481.947,652.41,491.17,643.994,491.3Z" transform="translate(-446.1 -350.635)"/>
      <path id="路径_139" data-name="路径 139" d="M678.054,461.891a1.539,1.539,0,0,1-1.6-1.536,1.973,1.973,0,0,1,1.053-1.5c4.38-2.475,4.489-2.5,5.008-2.5h.027a1.539,1.539,0,0,1,1.542,1.581,1.207,1.207,0,0,1-.575,1.073A55.222,55.222,0,0,1,678.054,461.891Z" transform="translate(-463.593 -340.333)"/>
      <path id="路径_140" data-name="路径 140" d="M667.562,444.67c.024.547.076,1.094.076,1.64,0,1.552-1.065,1.684-1.454,1.684-1.39,0-1.45-1.133-1.45-3.037,0-.181,0-.37,0-.565,0-.681.022-1.361.065-2.038a1.28,1.28,0,0,1,1.323-1.181c1.3,0,1.442,1.319,1.442,1.924,0,.175-.012.291-.012.3,0,.424-.016.85-.016,1.275Z" transform="translate(-458.223 -333.379)"/>
      <path id="路径_141" data-name="路径 141" d="M633.738,444.3c0,.379.009.758.009,1.136v.027c0,.752-.01,2.5-1.593,2.5s-1.674-1.578-1.674-5.234c0-1.961,1.327-2.043,1.574-2.043,1.816,0,1.552,2.1,1.644,3.618Z" transform="translate(-442.537 -333.153)"/>
      <path id="路径_142" data-name="路径 142" d="M621.593,463a1.444,1.444,0,0,1-1.375,1.462c-.5,0-5.734-1.307-5.734-3.254a1.33,1.33,0,0,1,1.312-1.369,2.011,2.011,0,0,1,.77.169C620.517,461.664,621.593,461.7,621.593,463Z" transform="translate(-435.212 -341.93)"/>
      <path id="路径_143" data-name="路径 143" d="M372.712,373.768c0,.333.02.669.02,1q-.009.24-.009.478c0,4.782,3.185,9.577,7.173,9.577,3.558,0,4.2-2.816,5.8-2.816a1.453,1.453,0,0,1,1.42,1.421c0,1.106-2.972,4.414-7.318,4.414-5.019,0-10.163-5.2-10.163-13.383,0-5.626,3.524-12.79,10.248-12.79,2.09,0,5.209,1.094,5.209,2.669a1.479,1.479,0,0,1-1.391,1.445c-.9,0-1.94-1.107-4-1.107C375.345,364.679,372.712,370.216,372.712,373.768Z" transform="translate(-323.088 -296.974)"/>
      <path id="路径_144" data-name="路径 144" d="M480.372,376.608c.282,5.857.286,5.9.286,6.148v.02c0,1.577-.948,1.873-1.474,1.873a1.465,1.465,0,0,1-1.459-1.385c-.191-2.124-.958-19.008-.958-19.06,0-.779.356-1.829,1.489-1.829,1.776,0,1.527,1.6,1.856,8.692,2.977-1.422,5.92-3.879,7.088-3.879a1.457,1.457,0,0,1,1.42,1.453c0,1.368-1.719,1.71-6.621,4.973,7.557,6.829,9.186,7.484,9.186,8.746a1.46,1.46,0,0,1-1.413,1.449c-1.258,0-3.26-2.555-9.151-7.328Z" transform="translate(-372.147 -297.296)"/>
      <path id="路径_145" data-name="路径 145" d="M411.112,384.6c9.5-.517,9.421-.535,9.892-.535h.113c1.722,0,1.9,1.161,1.9,1.507a1.423,1.423,0,0,1-.715,1.238c-.833.488-12.239.85-12.29.85-1.514,0-1.77-.79-1.844-1.554-.128-1.321-1.315-20.988-1.315-21.039,0-1.754,1.228-1.835,1.48-1.835C410.444,363.231,409.65,364.7,411.112,384.6Z" transform="translate(-340.133 -297.688)"/>
      <path id="路径_146" data-name="路径 146" d="M448.253,375.02q0-.162,0-.324,0-.085,0-.17c0-7.135,4.1-11.3,8.027-11.3.309,0,3.532.15,3.532,1.968a1.436,1.436,0,0,1-1.5,1.466c-.544,0-1.183-.283-2.244-.283-3.805,0-4.9,6.317-4.9,8.331,0,4.266,2.652,9.067,5.556,9.067,1.53,0,2.059-.962,3.025-.962a1.451,1.451,0,0,1,1.435,1.432c0,1.461-2.617,2.544-4.384,2.544C451.941,386.791,448.253,381.019,448.253,375.02Z" transform="translate(-359.09 -297.687)"/>
      <path id="路径_147" data-name="路径 147" d="M442.165,385.741c0,.143.008.371.008.63,0,0,.005.07.005.175,0,.5-.118,1.883-1.469,1.883A1.536,1.536,0,0,1,439.232,387c-.139-1.024-1.239-18.907-1.239-18.958,0-1.766,1.251-1.785,1.449-1.785C441.676,366.252,440.747,367.946,442.165,385.741Z" transform="translate(-354.391 -299.071)"/>
      <path id="路径_148" data-name="路径 148" d="M519.774,377.77c0,.253.015.507.015.76,0,1.639-1.108,1.818-1.487,1.818a1.478,1.478,0,0,1-1.434-1.269c-.2-1.075-1.011-16.123-1.011-16.332,0-1.643,1.1-1.812,1.481-1.812,1.91,0,1.508,1.026,2.4,16.837Z" transform="translate(-390.048 -296.636)"/>
      <path id="路径_149" data-name="路径 149" d="M519.951,403.5a1.367,1.367,0,1,1-1.339,1.317,1.31,1.31,0,0,1,1.339-1.317Z" transform="translate(-391.309 -316.13)"/>
    </g>
  </g>
</svg>
