<svg xmlns="http://www.w3.org/2000/svg" width="390" height="357.824" viewBox="0 0 390 357.824">
  <g id="完美" transform="translate(-263.613 -174.569)" opacity="0.8">
    <g id="Hk2Aup.tif" transform="translate(263.613 215.414)">
      <path id="路径_150" data-name="路径 150" d="M653.613,402.5a1.744,1.744,0,0,0-1.885-1.586c-2.017,0-41.781,37.487-58.806,88.21a9.836,9.836,0,0,1-.493.982c-13.409-17.545-69.366-45.514-90.19-69.506a9.479,9.479,0,0,0-1.571-1.183c7.643-19.1-.553-22.492,9.887-36.315,3.951-5.23,9.064-10.752,9.064-14.767a4.566,4.566,0,0,0-4.579-4.781c-5.95,0-16.074,11.448-21.755,15.43-7.3-40.664-8.7-50.524-12.4-50.524-1.432,0-8.764,4.635-8.764,21.664,0,3.591.278,4.365.584,8.874l-.271.033c-4.02-20.357-3.757-34.236-9.874-34.236-2.741,0-7.145,3.811-7.145,17.162,0,4,.175,9.251.175,10.894,0,.205,0,.411,0,.616-1.965-4.413-3.752-18.545-10.036-18.545-4.061,0-6.546,3.228-6.546,11.484a90.645,90.645,0,0,0,1.264,12.908c-2.88.66-4.275,2.886-5.9,5.153-1.4-7.323-3.2-15.617-10.753-15.617-5.109,0-6.03,8.677-6.439,12.586-1.646-2.98-2.968-6.746-7.168-6.746-3.243,0-6.112,5.219-6.112,13,0,7.066.68,22.808,1.926,34.935-3.877-4.846-5.79-16.22-16.952-21.681a3.941,3.941,0,0,0-1.72-.446c-2.412,0-3.209,2.916-3.209,5.316,0,1.823,6.475,29.132,14.425,40.018a3.837,3.837,0,0,1,.273.663c-1.254-.738-1.96-1.255-2.7-1.255-3.465,0-1.143,9.034-27.2,24.208-47.763,27.818-40.5,19.988-69.461,47.247-19.087-58.141-25.693-61.723-26.352-61.723a1.743,1.743,0,0,0-1.453,1.715c0,.051,25.211,50.04,25.211,62.945,0,2.043-12.609,15.016-12.609,33.824,0,10.457,5.071,15.909,10.268,15.909,8.487,0,10.853-12.7,10.853-21.272,0-12.624-4.657-25.823-4.657-27.077,0-12.1,52.807-36.7,86.832-60.963,8.987,8.058,11.111,11.357,12.647,11.357a1.523,1.523,0,0,0,1.521-1.513c0-1.424-3.237-3.5-11.908-12.172,2.933-2.491,4.739-5.663,6.528-8.979l43.986,26.12c-3.682,3.286-6.57,7.1-9.576,10.87-6.548-3.712-9.333-5.9-10.364-5.9a1.558,1.558,0,0,0-1.55,1.552c0,1.306.566,1.144,9.909,6.892C390.47,529.74,360.492,583.29,265.131,598.17a1.618,1.618,0,0,0-1.519,1.55,1.643,1.643,0,0,0,1.658,1.633c103.88,0,161.7-133.9,178.039-145.2a2.051,2.051,0,0,0,1.073-1.573c0-1.094-1.4-1.73-2.752-2.562a47.621,47.621,0,0,0,9.976-18.757c24.629,14.971,66.824,147.126,143.978,147.126,24.24,0,40.662-17.7,40.662-19.159a1.771,1.771,0,0,0-1.752-1.665c-2.308,0-13.713,17.645-39.037,17.645-47.554,0-85.355-54.15-124.331-126.789,6.064-.434,12.762-2.8,12.762-5.048a1.488,1.488,0,0,0-1.382-1.523c-1.153,0-6.268,3.518-10.869,3.518-.273,0-.519.011-.75.011-1.545,0-2.4-.475-5.983-7.786,14.383-.329,26.108-5.641,34.455-17.8l3.782,4.153c-5.9,9.263-8.221,8.961-8.221,10.777a1.474,1.474,0,0,0,1.448,1.472c.145,0,2.807-.189,8.741-9.933,33.619,29.043,86.234,57.78,86.234,65.684,0,.4-3.718,11.784-3.718,22.183,0,19.393,10.361,19.64,11.415,19.64h.063c5.611,0,11.109-5.057,11.109-13.645,0-15.288-14.913-27.853-14.913-29.772,0-.385,6.358-33.918,57.72-88.53a1.957,1.957,0,0,0,.591-1.319Zm-351.6,125.625c0,9.8-2.893,18.06-7.676,18.06-3.005,0-7.082-3.66-7.082-12.728,0-15.571,10.26-28.811,10.6-29.213l.294.054C299.449,509.776,302.016,518.613,302.016,528.129Zm136.8-77.756c-31.946-18.86-42.39-19.335-51.568-63.482a5.875,5.875,0,0,1-.131-1.2,4.784,4.784,0,0,1,.388-1.9c12.683,7.339,13.8,22.686,18.467,22.686.1,0,3.13-.269,3.13-3.071,0-.091-1.977-18.172-1.977-35.139,0-9.022,2.752-10.366,3.118-10.366,6.945,0,7.116,30.986,7.13,31.315.05,1.192.613,1.88,1.455,1.88.857,0,1.405-.638,1.405-1.9,0-1.13-.162-17.942-.162-19.58,0-17,3.073-17.566,3.746-17.566,5.911,0,7.739,11.946,7.739,19.045,0,1.424-.025,1.711-.025,3.278,0,.841.007,1.681.007,2.522,0,3.3-.165,5.746-.165,9.078,0,1.5-.013,2.759-.013,3.81,0,3.623.154,4.773,1.52,4.773,3.867,0-1.075-24.115,6.373-31.178.528-.5.882-.764,1.228-.764,6.392,0,9.14,46.685,9.14,55.708C449.616,427.624,448.862,439.387,438.812,450.372Zm26.922-14.058h-.092c-.053,0-.453.049-1.094.049-8.443,0-12.276-7.46-12.276-8.288a84.614,84.614,0,0,0,.544-9.85c0-5.239-2.079-50.723-8.456-56.591-1.736-1.6-2.178-15.945-2.178-16,0-1.29.222-7.524,3.255-7.524,5.249,0,9.826,36.719,13.871,36.719,1.547,0,1.754-2.346,1.754-2.787,0-3.165-2.5-13.762-2.5-29.755,0-10.778,3.076-14.249,4.011-14.249,3.78,0,5.73,42.61,11.437,42.61,2.182,0,2.222-.539,2.222-4.445,0-6.524-.923-11.705-.923-15.924,0-12.769,3.953-16.7,5.357-18.1,2.815,5.784,3.492,23.486,9.006,44.529a9.565,9.565,0,0,1,.285,2.447c0,7.975-30.513,17.689-30.513,36.542,0,3.874,2.172,7.647,5.694,7.647,3.736,0,5.861-5,5.861-8.607,0-2.488-1.409-6.944-1.99-7.6a1.423,1.423,0,0,0-1.087-.515,1.512,1.512,0,0,0-1.572,1.474c0,1.195,1.469,3.954,1.469,6.35,0,2.708-1.419,5.715-2.738,5.715-.88,0-2.459-1.345-2.459-4.632,0-13.238,17.2-19.721,40.451-40.731,8.55-7.726,11.161-8.051,11.887-8.051a1.414,1.414,0,0,1,1.493,1.551c0,5.91-14.46,14.032-15.071,30.852-1.345,36.989-32.123,37.161-35.642,37.161Zm141.275,85.494c0,10.366-7.408,10.777-7.769,10.777-8.389,0-8.43-14.029-8.43-16.34v-.064c0-8.594,2.754-18.793,3.245-19.637C594.286,496.63,607.009,509.829,607.009,521.809Z" transform="translate(-263.613 -284.374)"/>
      <path id="路径_151" data-name="路径 151" d="M815.686,321.705a41.158,41.158,0,0,0,14.033-30.871c0-20.721-16.249-40.763-40.337-40.763-22.724,0-40.662,19.019-40.662,41.1,0,21.5,16.936,40.8,40.2,40.8a49.418,49.418,0,0,0,8.774-.945c1.7,0,10.308,13.583,25.964,13.583.157,0,.415.01.735.01,1.6,0,4.775-.245,4.775-3.187C829.171,339.064,822.378,338.2,815.686,321.705Zm6.914,18.874c-15.271-1.642-20.655-13.981-23.693-13.981a61.643,61.643,0,0,1-9.936,1.131A36.2,36.2,0,0,1,752.9,291.242c0-19.675,15.754-36.978,36.436-36.978a36.284,36.284,0,0,1,36.193,36.575c0,19.741-14.358,28.465-14.358,30.341,0,.172,2.061,9.193,11.132,18.683.135.141.25.3.375.453Z" transform="translate(-486.288 -250.072)"/>
      <path id="路径_152" data-name="路径 152" d="M377.522,343.734c-20.96,0-46.693,10.105-46.693,26.7,0,1.547.194,2.345.194,2.781,0,1.22-.107,1.018-7.357,6.086-.238.167-1.122.5-1.122,1.454a1.575,1.575,0,0,0,1.534,1.576c2.735,0,9.4-.492,11.167-.492,4.64,0,9.456,7.747,29.674,7.9,28.963-.081,47.893-13.561,47.893-26.079C412.815,352.9,399.389,343.734,377.522,343.734Zm-11.329,42.814c-20.984,0-25.922-8.047-29.713-8.047-.881,0,.823.026-6.072.375l-.085-.2c3.717-3.313,3.907-3.783,3.907-4.987,0-.826-.188-2.125-.188-3.308,0-13.249,22-23.452,43.5-23.452,19.93,0,32.1,7.966,32.1,16.653C409.641,375.741,388.32,386.548,366.194,386.548Z" transform="translate(-290.664 -293.065)"/>
      <path id="路径_153" data-name="路径 153" d="M393.464,484.882c-2.031-2.017-2.357-3.592-3.542-3.592a2.083,2.083,0,0,0-1.916,1.9c-.767,7.837-2.809,6.617-6.509,10.347a1.475,1.475,0,0,0-.476,1.048,1.316,1.316,0,0,0,1.335,1.368c.357,0,.676-.111,1.55-.111,3.459,0,8.823,2.712,9.007,6.647a2.361,2.361,0,0,0,2.195,2.34,1.461,1.461,0,0,0,1.45-1.432,17.922,17.922,0,0,1-.378-2.456c0-2.771,3.915-8.237,6.042-10.123a4.057,4.057,0,0,0,.7-1.093q0-.051,0-.1C402.925,486.055,398.331,489.716,393.464,484.882Zm.354,12.147A13.753,13.753,0,0,0,387,493.276a12.305,12.305,0,0,0,3.684-6.829,13.978,13.978,0,0,0,7.11,4.25l-3.979,6.332Z" transform="translate(-317.506 -356.206)"/>
      <path id="路径_154" data-name="路径 154" d="M571.675,268.553c-2.559-9.593-1.519-11.959-3.607-11.959-2.2,0-1.408,6.584-8.506,6.762a7.8,7.8,0,0,0-2.354.517,1.27,1.27,0,0,0-.885,1.2c0,1.248,3.328,3.168,4.259,4.652,2.5,3.978,2.6,5.136,2.6,5.552,0,.039,0,.071,0,.1,0,.961-.394,1.181-.394,1.737a1.426,1.426,0,0,0,1.393,1.345c1.5,0,1.832-2.88,4.8-4.841a2.636,2.636,0,0,1,1.387-.625,1.286,1.286,0,0,1,.392.063q.094,0,.181,0c.892,0,1.321-.329,1.774-1.309a2.039,2.039,0,0,0,.221-.852C572.938,269.926,571.928,269.5,571.675,268.553Zm-5.879,3.63-3.932-5.877a9.564,9.564,0,0,0,5.3-3.307l1.533,7.062-2.905,2.121Z" transform="translate(-397.973 -253.065)"/>
      <path id="路径_155" data-name="路径 155" d="M778.492,477.456a1.668,1.668,0,0,0,.03-.31c0-.88-.746-1.111-1.359-1.485a2.092,2.092,0,0,0-1.065-.35c-2.446,0-.111,6.3-7.74,9.566-.962.411-1.967.867-1.967,1.891,0,1.834,1.8,1.408,2.533,1.946,4.57,3.337,2.3,5.027,4.561,7.445a1.9,1.9,0,0,0,1.358.685c2.719,0,.431-5.313,6.911-9.089a1.8,1.8,0,0,0,1.073-1.481C782.828,484.394,778.806,484.092,778.492,477.456Zm-3.826,12.882-3.111-3.567a11.334,11.334,0,0,0,4.569-4.86l2.379,4.283-3.838,4.144Z" transform="translate(-494.4 -353.462)"/>
      <path id="路径_156" data-name="路径 156" d="M611.925,626.75c-1.635-2.114-3.31-1.978-4.85-7.644-.011-.042-.232-1.322-1.324-1.322-2.55,0-.466,3.522-5.294,7.881-1.131,1.021-2.155,1.626-2.155,2.487,0,1.473,3.308,1.557,5.17,6.355.539,1.388.908,1.827,1.648,1.827,2.078,0,1.111-4.589,5.956-7.9a1.648,1.648,0,0,0,.853-1.528Q611.93,626.831,611.925,626.75Zm-6.955,4.919-3.186-3.833a14.716,14.716,0,0,0,3.679-5.059l2.983,4.292-3.476,4.6Z" transform="translate(-417.243 -418.86)"/>
      <path id="路径_157" data-name="路径 157" d="M781.463,299.438q0-.206.008-.415-.005-.17-.005-.338c0-4.5,3-8.012,6.536-8.012,1.727,0,3.739,1.2,3.739,2.386a1.371,1.371,0,0,1-1.328,1.336c-.835,0-1.326-.66-2.542-.66-2.6,0-3.283,4.018-3.283,5.322,0,1.706.823,5.245,3.337,5.245,1.478,0,1.89-2.6,1.89-2.815,0-1.118-1.38-1.085-1.38-2.443a1.556,1.556,0,0,1,1.532-1.532c.759,0,3.043,1.107,3.043,4.123,0,2.005-1.48,5.837-5.152,5.837C783.1,307.473,781.463,302.176,781.463,299.438Z" transform="translate(-501.318 -268.709)"/>
      <path id="路径_158" data-name="路径 158" d="M853.78,292.784a7.774,7.774,0,0,1,1.734.473c-.146-3.991-3.642-5.922-3.642-7.471a1.356,1.356,0,0,1,1.328-1.295c1.682,0,5.844,4.774,5.844,11.69,0,5.967-4.539,6.614-5.042,6.614-2.525,0-4.158-3.023-4.158-5.554A4.5,4.5,0,0,1,853.78,292.784Zm2.108,3.436a7.235,7.235,0,0,0-.177-1.573c-2.33,1.834-2.681,1.886-2.681,2.579a3.234,3.234,0,0,0,.937,2.3c1.333-.243,1.922-1.692,1.922-3.307Z" transform="translate(-532.707 -265.872)"/>
      <path id="路径_159" data-name="路径 159" d="M802.02,343.885c0,8.3-5.337,10.009-6.731,10.009-3.028,0-3.766-2.87-3.766-3.977,0-1.058.724-2.626,2.03-2.626a1.572,1.572,0,0,1,1.59,1.513c0,.683-.256.783-.256.941,0,.041,0,.082,0,.122,0,.432.023.758.565.758.378,0,3.4-1.631,3.4-6.147,0-3.273-1.547-4.829-2.653-4.829-.768,0-1.142.378-1.8.378a1.381,1.381,0,0,1-1.388-1.385c0-1.285,1.977-1.921,3.234-1.921C800.523,336.721,802.02,341.707,802.02,343.885Z" transform="translate(-505.935 -289.846)"/>
      <path id="路径_160" data-name="路径 160" d="M820.911,352.228a5.817,5.817,0,0,1-5.674-6.055,5.758,5.758,0,0,1,5.733-5.992c4.276,0,5.585,4.263,5.585,6.047C826.555,348.719,824.731,352.228,820.911,352.228Zm2.522-5.945c-.077-.342-.308-2.909-2.562-2.909a2.606,2.606,0,0,0-2.467,2.846,2.72,2.72,0,0,0,2.515,2.812c2.07,0,2.374-2.308,2.514-2.749Z" transform="translate(-516.821 -291.434)"/>
      <path id="路径_161" data-name="路径 161" d="M843.568,341.678a5.573,5.573,0,0,1,1.54-.243,4.388,4.388,0,0,1,4.11,4.593c0,3.317-2.329,5.054-4.04,5.054-1.856,0-4.905-2.108-4.905-7.685,0-3.739,2.348-8.184,4.426-8.184a1.429,1.429,0,0,1,1.473,1.359,1.675,1.675,0,0,1-.789,1.28C844.186,338.768,843.909,340.094,843.568,341.678Zm1.407,2.992c-.495,0-.882.391-1.3.736a3.314,3.314,0,0,0,1.656,2.491,3.827,3.827,0,0,0,.715-1.966c0-1.054-.724-1.261-1.071-1.261Z" transform="translate(-528.313 -289.154)"/>
      <path id="路径_162" data-name="路径 162" d="M806.668,304.441c.12-.471.627-5.243,5.069-5.243,3.2,0,5.875,3.09,5.875,6.58,0,2.131-1.343,5.6-5.053,5.6C810.336,311.382,806.929,309.643,806.668,304.441Zm7.791,1.432c-.181-2.266-1.533-3.492-2.709-3.492-1.125,0-1.863,1.148-1.863,2.412,0,1.8,1.3,3.4,2.685,3.4C814.2,308.193,814.374,306.258,814.459,305.873Z" transform="translate(-512.888 -272.622)"/>
      <path id="路径_163" data-name="路径 163" d="M829.284,305.274c.169-6.363,5-6.386,5.1-6.386,4.22,0,4.612,4.637,4.612,5.484,0,2.788-2.192,5.857-5.108,5.857C829.933,310.229,829.416,305.813,829.284,305.274Zm6.546-1.211c-.027-.093-.29-2.015-1.422-2.015-.894,0-1.916,1.269-1.916,2.851,0,1.048.523,2.111,1.387,2.111.38,0,1.669-.284,1.951-2.947Z" transform="translate(-523.269 -272.48)"/>
      <path id="路径_164" data-name="路径 164" d="M412.331,380.321l.6,3.682a8.591,8.591,0,0,1,2-.5.972.972,0,0,1,1.031.974c0,1.113-1.657,1.44-2.633,1.741,0,.2-.014.4-.014.6,0,.416.894,6.69.894,6.82,0,.328-.568,1.141-1.062,1.141a1.6,1.6,0,0,1-1-.465,2.121,2.121,0,0,1-.38-1.123c-1.192-8.125-1.275-7.5-1.275-7.611,0-.018,0-.055,0-.151,0-.143.079-.57.079-1.321,0-2.5-.841-3.765-.841-4.477,0-1.427,2.91-1.51,3.2-1.51.608,0,3.427.192,3.427,1.678a1.037,1.037,0,0,1-1.02,1.042A24.6,24.6,0,0,0,412.331,380.321Z" transform="translate(-330.687 -308.85)"/>
      <path id="路径_165" data-name="路径 165" d="M370.148,390.384c-.839-.072-1.852-.15-1.852-1.349,0-.706.646-.982,1.375-1.254-.921-4.086-.957-3.91-.957-4.238,0-.028,0-.059,0-.1,0-1.741,1.73-1.986,2.6-1.986.3,0,3.258.081,3.258,2.788,0,3.032-2.229,3.434-2.229,4.938,0,.509.755,2.791.755,3.807a1.045,1.045,0,0,1-1.1,1.147C370.779,394.14,370.658,392.6,370.148,390.384Zm1.377-4.708a2.5,2.5,0,0,0,.762-1.308c0-.4-.43-.467-1.039-.8.113.859.187,1.427.277,2.113Z" transform="translate(-311.665 -310.382)"/>
      <path id="路径_166" data-name="路径 166" d="M452.653,379.588c-.523,0-1.342-.307-2.521-7.766-1.337.484-1.479.56-1.805.56a1.055,1.055,0,0,1-1.021-1.084c0-1.116,1.392-1.348,2.718-1.692,0-.3-.011-.583-.011-.855,0-.775.1-2.187,1.132-2.187s1.078.847,1.078,1.359c0,.069,0,.131,0,.185,0,.329-.011.686-.011,1.108a23.17,23.17,0,0,1,3.271-.626,1.165,1.165,0,0,1,1.2,1.23c0,1.122-1.024,1.083-4.019,1.68,1.092,6.4,1.27,5.9,1.27,6.787a1.143,1.143,0,0,1-1.147,1.3Z" transform="translate(-347.932 -303.544)"/>
      <path id="路径_167" data-name="路径 167" d="M396.147,389.768c-.042-.284-.883-5.791-.883-6.414a1.18,1.18,0,0,1,.8-1.18,7.128,7.128,0,0,1,2.557-.93,1.986,1.986,0,0,1,1.979,1.934c0,.9-.573,1.678-1.373,3.15a6.082,6.082,0,0,0,2.467.656c.127,0,.256-.032.382-.032a1.14,1.14,0,0,1,1.217,1.128c0,1.1-.925,1.189-1.369,1.189-.09,0-.16,0-.2,0a9.952,9.952,0,0,1-3.279-.546,9.709,9.709,0,0,1,.4,1.828,1.092,1.092,0,0,1-1.1,1.116c-.947,0-1.227-1.061-1.633-1.942Z" transform="translate(-324.043 -310.283)"/>
      <path id="路径_168" data-name="路径 168" d="M426.7,381.321c.317,1.052.606,1.493,1.148,1.493.755,0,1.254-.608,2-.608a1,1,0,0,1,1,1.03c0,.865-1.028,1.97-3,1.97a2.868,2.868,0,0,1-2.354-1.059,15.382,15.382,0,0,1-1.824-3.946,7.92,7.92,0,0,0,.253-1.46c0-1.012-.391-1.994-.391-2.658,0-1.425,2.473-1.666,3.309-1.666,2.2,0,2.229,1.149,2.229,1.262v.007a1.014,1.014,0,0,1-1.092,1.02h-1.969l.106,2.381c1.728-.158,1.723-.161,1.871-.161h.022c.239,0,1.256.034,1.256,1C429.274,381.125,427.3,381.241,426.7,381.321Z" transform="translate(-337.023 -307.149)"/>
      <path id="路径_169" data-name="路径 169" d="M390.256,390.58v.051a2.331,2.331,0,0,1-2.473,2.609c-3.933,0-5.269-4.183-5.269-8.135,0-.874,1.407-1.99,3.234-1.99,2.164,0,2.406.868,2.406,1.3a1.026,1.026,0,0,1-1.129,1.005c-.323,0-.649-.071-1.132-.071-.759,0-1.089.214-1.089.8a4.655,4.655,0,0,0,.277,1.3,13.179,13.179,0,0,1,2.169-.4,1.037,1.037,0,0,1,1.156,1.023c0,1.05-1.422,1.225-2.494,1.533.436.814.9,1.22,1.464,1.22.8,0,1.083-.635,1.786-.635a2.3,2.3,0,0,1,1.135.441Z" transform="translate(-318.191 -311.142)"/>
      <path id="路径_170" data-name="路径 170" d="M439.715,376.821a5.073,5.073,0,0,0-.353,1.84c0,.227.1,2.921,1.7,2.921,1.08,0,1.512-1.02,2.383-1.02A1.109,1.109,0,0,1,444.5,381.6c0,.779-1.263,2.377-3.276,2.377-2.973,0-4.172-2.742-4.172-5.118,0-1.54.737-4.789,3.09-4.789a1.442,1.442,0,0,1,1.467,1.414C441.61,376.622,440.391,376.636,439.715,376.821Z" transform="translate(-343.226 -306.99)"/>
    </g>
    <path id="路径_171" data-name="路径 171" d="M639.5,263.715a41.28,41.28,0,0,1-13.334,23.333c6.692,16.5,13.485,17.359,13.485,19.722,0,2.942-3.172,3.187-4.775,3.187-.32,0-.577-.01-.735-.01-15.656,0-24.264-13.583-25.964-13.583a49.415,49.415,0,0,1-8.774.945c-23.266,0-40.2-19.3-40.2-40.8a41.511,41.511,0,0,1,20.909-35.865c-5.361-7.256-18.037-21.194-21.1-22.967-18.2,16.133-18.4,17.719-20.266,17.719a2.287,2.287,0,0,1-2.267-2.281c0-2.213,10.737-10.229,19-18.539-2.481-3.3-27.659-20.012-64.646-20.012a71.364,71.364,0,0,0-10.875.57c-.013.208-.032.328-.032.426,0,.3,2.875,20.761,2.875,21.809a2.25,2.25,0,0,1-2.275,2.257c-2.678,0-2.123-1.027-5.124-23.209a4.471,4.471,0,0,0-.218-.7c-33.029,2.705-57.07,26.9-67.24,52.527,17.464,4.848,22.942,3.57,22.942,7.063a2.31,2.31,0,0,1-2.312,2.3c-.808,0-18.474-4.206-22.932-5.067-12.209,20.989-18.972,29.719-21.89,33.539,21.794.034,35.17,9.19,35.17,19.923,0,12.517-18.931,26-47.893,26.079-8.341-.064-14.056-1.42-18.223-2.991-7.9,11.9-16.962,33.177-16.962,52.042,0,4.937.254,5.312.3,5.548,4.4-.934,21.776-5.319,22.854-5.319a2.228,2.228,0,0,1,2.231,2.269c0,2.554-.565,1.893-24.846,7.769,0,.226-.012.422-.012.605,0,15.417,10.4,33.159,14.27,39.214,11.148-9.189,17.266-10.931,51.264-30.732,26.053-15.174,23.731-24.208,27.2-24.208.743,0,1.449.516,2.7,1.255a3.838,3.838,0,0,0-.273-.662c-7.95-10.885-14.425-38.2-14.425-40.018,0-2.4.8-5.316,3.209-5.316a3.942,3.942,0,0,1,1.72.446c11.161,5.461,13.075,16.835,16.952,21.681-1.245-12.126-1.926-27.869-1.926-34.935,0-7.782,2.869-13,6.112-13,4.2,0,5.522,3.767,7.168,6.746.41-3.909,1.33-12.586,6.439-12.586,7.553,0,9.348,8.294,10.753,15.617,1.621-2.266,3.016-4.493,5.9-5.153a90.645,90.645,0,0,1-1.264-12.908c0-8.256,2.485-11.484,6.546-11.484,6.284,0,8.071,14.131,10.036,18.545,0-.205,0-.411,0-.616,0-1.643-.175-6.892-.175-10.894,0-13.351,4.4-17.162,7.145-17.162,6.116,0,5.853,13.878,9.874,34.236l.271-.033c-.306-4.509-.584-5.283-.584-8.874,0-17.029,7.332-21.664,8.764-21.664,3.7,0,5.1,9.86,12.4,50.524,5.681-3.982,15.8-15.43,21.755-15.43a4.566,4.566,0,0,1,4.579,4.781c0,4.015-5.113,9.537-9.064,14.767-10.441,13.822-2.244,17.215-9.887,36.315,10.394,7.683-11.146-3.406,65.466,49.117,7.792-6.791,15.722-13.42,23.007-20.9-17.778-14.425-19.224-14.128-19.224-16.254a2.27,2.27,0,0,1,2.25-2.247c1.837,0,9.14,6.905,20.221,15.124,20.585-21.735,26.985-42.349,27.76-49.423-2.264.163-24.437,4.053-25.466,4.053a2.263,2.263,0,0,1-2.3-2.3c0-3.375,4.331-2.11,28.678-6.7a22.335,22.335,0,0,1,.333-3.345v-9.016C653.8,304.573,654.778,281.349,639.5,263.715ZM382.183,348.933a4.056,4.056,0,0,1-.7,1.093c-2.127,1.887-6.042,7.352-6.042,10.123a17.922,17.922,0,0,0,.378,2.456,1.461,1.461,0,0,1-1.45,1.432,2.361,2.361,0,0,1-2.2-2.34c-.184-3.935-5.548-6.647-9.007-6.647-.874,0-1.194.112-1.55.112a1.316,1.316,0,0,1-1.335-1.368,1.475,1.475,0,0,1,.476-1.048c3.7-3.73,5.742-2.51,6.509-10.347a2.083,2.083,0,0,1,1.916-1.9c1.185,0,1.511,1.574,3.542,3.592,4.867,4.834,9.461,1.173,9.461,4.742Q382.185,348.882,382.183,348.933ZM471.508,234.1c-.453.98-.882,1.309-1.774,1.309q-.088,0-.181,0a1.285,1.285,0,0,0-.392-.063,2.636,2.636,0,0,0-1.387.625c-2.968,1.961-3.3,4.841-4.8,4.841a1.426,1.426,0,0,1-1.393-1.345c0-.556.394-.776.394-1.737,0-.028,0-.06,0-.1,0-.416-.107-1.575-2.6-5.552-.931-1.484-4.259-3.4-4.259-4.652a1.27,1.27,0,0,1,.885-1.2,7.8,7.8,0,0,1,2.354-.517c7.1-.178,6.305-6.762,8.506-6.762,2.088,0,1.047,2.366,3.606,11.959.253.947,1.263,1.374,1.263,2.346A2.038,2.038,0,0,1,471.508,234.1ZM584.12,349.707c-6.48,3.776-4.191,9.089-6.911,9.089a1.9,1.9,0,0,1-1.358-.685c-2.258-2.418.009-4.108-4.561-7.445-.737-.538-2.533-.112-2.533-1.946,0-1.024,1.006-1.48,1.967-1.891,7.629-3.265,5.294-9.566,7.74-9.566a2.092,2.092,0,0,1,1.065.35c.613.374,1.359.6,1.359,1.485a1.674,1.674,0,0,1-.03.31c.314,6.636,4.335,6.939,4.335,8.818a1.8,1.8,0,0,1-1.073,1.481Z" transform="translate(-33.153)" fill="#5fc690"/>
    <path id="路径_172" data-name="路径 172" d="M585.987,583.664c-.369-.627-2.516-4.252-5.291-9.191-.52-.929-2.429-4.312-5.305-9.645-18.071-33.345-17.637-33.6-19.9-33.991-3.656-.627-8.179-5.511-8.23-5.542a48,48,0,0,1-9.976,18.757c.952.586,2.752,1.4,2.752,2.562a2.08,2.08,0,0,1-1.073,1.573c-10.738,6.872-30.77,51.511-66.686,88.954-.092.157-.182.307-.274.466.157.3,10.369,18.565,18.3,26.13,14.58-18.706,13.9-18.714,15.591-18.714h0a2.3,2.3,0,0,1,2.283,2.272c0,1.734-9.165,12.211-14.506,19.694,19.472,17.121,41.16,16.051,51.581,17.5h9.5c.933-.267,18.781-1.186,31.71-7.418-15.1-22.288-16.677-22.872-16.677-24.625a2.324,2.324,0,0,1,2.285-2.286c2.556,0,8.965,12.108,18.7,24.91,16.808-4.823,30.7-29.991,32.405-39.754C605.927,616.562,592.476,594.658,585.987,583.664Zm-32.717,2.2c-5.391,4.086-4.006,8.018-6.122,8.018h0c-.74,0-1.109-.439-1.648-1.827-1.85-4.768-5.17-4.894-5.17-6.355,0-1.18,1.852-1.8,3.682-4.1a1.879,1.879,0,0,1,.669-.941,13.393,13.393,0,0,0,1.562-3.94c.361-1.19.853-1.384,1.534-1.385h0c1.092,0,1.313,1.28,1.324,1.322,1.54,5.667,3.215,5.53,4.85,7.644,0,.016,0,.078,0,.156a1.586,1.586,0,0,1-.687,1.41Z" transform="translate(-95.658 -160.991)" fill="#5fc690"/>
  </g>
</svg>
